<?xml version="1.0" encoding="UTF-8" standalone="no"?>
<!DOCTYPE svg PUBLIC "-//W3C//DTD SVG 1.1//EN"
 "http://www.w3.org/Graphics/SVG/1.1/DTD/svg11.dtd">
<!-- Generated by graphviz version 2.40.1 (20161225.0304)
 -->
<!-- Pages: 1 -->
<svg width="667pt" height="720pt"
 viewBox="0.00 0.00 666.76 720.00" xmlns="http://www.w3.org/2000/svg" xmlns:xlink="http://www.w3.org/1999/xlink">
<g id="graph0" class="graph" transform="scale(.1624 .1624) rotate(0) translate(4 4429.6959)">
<polygon fill="#ffffff" stroke="transparent" points="-4,4 -4,-4429.6959 4101.8537,-4429.6959 4101.8537,4 -4,4"/>
<!-- 310 -->
<g id="node1" class="node">
<title>310</title>
<ellipse fill="#4169e1" stroke="#000000" cx="658.0977" cy="-1630.3177" rx="24.8972" ry="24.8972"/>
<text text-anchor="middle" x="658.0977" y="-1626.6177" font-family="Times,serif" font-size="14.00" fill="#000000">310</text>
</g>
<!-- 219 -->
<g id="node2" class="node">
<title>219</title>
<ellipse fill="#4169e1" stroke="#000000" cx="4073.1559" cy="-1075.2096" rx="24.8972" ry="24.8972"/>
<text text-anchor="middle" x="4073.1559" y="-1071.5096" font-family="Times,serif" font-size="14.00" fill="#000000">219</text>
</g>
<!-- 310&#45;&#45;219 -->
<g id="edge1" class="edge">
<title>310&#45;&#45;219</title>
<path fill="none" stroke="transparent" d="M682.6671,-1626.324C973.752,-1579.009 3758.5472,-1126.3484 4048.742,-1079.178"/>
</g>
<!-- 164 -->
<g id="node3" class="node">
<title>164</title>
<ellipse fill="#4169e1" stroke="#000000" cx="1146.6632" cy="-2538.2359" rx="24.8972" ry="24.8972"/>
<text text-anchor="middle" x="1146.6632" y="-2534.5359" font-family="Times,serif" font-size="14.00" fill="#000000">164</text>
</g>
<!-- 310&#45;&#45;164 -->
<g id="edge2" class="edge">
<title>310&#45;&#45;164</title>
<path fill="none" stroke="transparent" d="M669.9326,-1652.3109C736.8938,-1776.7473 1067.641,-2391.3861 1134.7659,-2516.1267"/>
</g>
<!-- 172 -->
<g id="node4" class="node">
<title>172</title>
<ellipse fill="#4169e1" stroke="#000000" cx="3381.1047" cy="-2750.7579" rx="24.8972" ry="24.8972"/>
<text text-anchor="middle" x="3381.1047" y="-2747.0579" font-family="Times,serif" font-size="14.00" fill="#000000">172</text>
</g>
<!-- 310&#45;&#45;172 -->
<g id="edge3" class="edge">
<title>310&#45;&#45;172</title>
<path fill="none" stroke="transparent" d="M681.2275,-1639.835C930.184,-1742.2735 3109.8795,-2639.1564 3358.1142,-2741.298"/>
</g>
<!-- 226 -->
<g id="node5" class="node">
<title>226</title>
<ellipse fill="#4169e1" stroke="#000000" cx="1174.4051" cy="-3276.5823" rx="24.8972" ry="24.8972"/>
<text text-anchor="middle" x="1174.4051" y="-3272.8823" font-family="Times,serif" font-size="14.00" fill="#000000">226</text>
</g>
<!-- 310&#45;&#45;226 -->
<g id="edge4" class="edge">
<title>310&#45;&#45;226</title>
<path fill="none" stroke="transparent" d="M665.4955,-1653.9061C723.8112,-1839.8477 1108.7127,-3067.1198 1167.0117,-3253.0081"/>
</g>
<!-- 210 -->
<g id="node6" class="node">
<title>210</title>
<ellipse fill="#4169e1" stroke="#000000" cx="24.6978" cy="-940.3989" rx="24.8972" ry="24.8972"/>
<text text-anchor="middle" x="24.6978" y="-936.6989" font-family="Times,serif" font-size="14.00" fill="#000000">210</text>
</g>
<!-- 310&#45;&#45;210 -->
<g id="edge5" class="edge">
<title>310&#45;&#45;210</title>
<path fill="none" stroke="transparent" d="M641.1557,-1611.864C551.3461,-1514.0406 131.63,-1056.8727 41.6921,-958.9096"/>
</g>
<!-- 243 -->
<g id="node7" class="node">
<title>243</title>
<ellipse fill="#4169e1" stroke="#000000" cx="1505.5262" cy="-143.8436" rx="24.8972" ry="24.8972"/>
<text text-anchor="middle" x="1505.5262" y="-140.1436" font-family="Times,serif" font-size="14.00" fill="#000000">243</text>
</g>
<!-- 310&#45;&#45;243 -->
<g id="edge6" class="edge">
<title>310&#45;&#45;243</title>
<path fill="none" stroke="transparent" d="M670.4038,-1608.7314C766.6268,-1439.9468 1397.1457,-333.9537 1493.2516,-165.3744"/>
</g>
<!-- 267 -->
<g id="node8" class="node">
<title>267</title>
<ellipse fill="#4169e1" stroke="#000000" cx="2540.3018" cy="-1281.4355" rx="24.8972" ry="24.8972"/>
<text text-anchor="middle" x="2540.3018" y="-1277.7355" font-family="Times,serif" font-size="14.00" fill="#000000">267</text>
</g>
<!-- 310&#45;&#45;267 -->
<g id="edge7" class="edge">
<title>310&#45;&#45;267</title>
<path fill="none" stroke="transparent" d="M682.5841,-1625.7789C887.2645,-1587.8397 2311.0879,-1323.9222 2515.8059,-1285.976"/>
</g>
<!-- 116 -->
<g id="node9" class="node">
<title>116</title>
<ellipse fill="#4169e1" stroke="#000000" cx="1403.1359" cy="-1199.1244" rx="24.8972" ry="24.8972"/>
<text text-anchor="middle" x="1403.1359" y="-1195.4244" font-family="Times,serif" font-size="14.00" fill="#000000">116</text>
</g>
<!-- 310&#45;&#45;116 -->
<g id="edge8" class="edge">
<title>310&#45;&#45;116</title>
<path fill="none" stroke="transparent" d="M679.5917,-1617.878C787.9105,-1555.1881 1273.0339,-1274.4214 1381.5546,-1211.6146"/>
</g>
<!-- 100 -->
<g id="node10" class="node">
<title>100</title>
<ellipse fill="#4169e1" stroke="#000000" cx="3658.6199" cy="-271.4047" rx="24.8972" ry="24.8972"/>
<text text-anchor="middle" x="3658.6199" y="-267.7047" font-family="Times,serif" font-size="14.00" fill="#000000">100</text>
</g>
<!-- 310&#45;&#45;100 -->
<g id="edge9" class="edge">
<title>310&#45;&#45;100</title>
<path fill="none" stroke="transparent" d="M680.9501,-1619.968C943.0071,-1501.2845 3375.4938,-399.6303 3636.0401,-281.6309"/>
</g>
<!-- 322 -->
<g id="node11" class="node">
<title>322</title>
<ellipse fill="#4169e1" stroke="#000000" cx="2487.3756" cy="-24.6978" rx="24.8972" ry="24.8972"/>
<text text-anchor="middle" x="2487.3756" y="-20.9978" font-family="Times,serif" font-size="14.00" fill="#000000">322</text>
</g>
<!-- 310&#45;&#45;322 -->
<g id="edge10" class="edge">
<title>310&#45;&#45;322</title>
<path fill="none" stroke="transparent" d="M676.7985,-1613.9033C857.3125,-1455.46 2287.7293,-199.9342 2468.5978,-41.1797"/>
</g>
<!-- 203 -->
<g id="node12" class="node">
<title>203</title>
<ellipse fill="#4169e1" stroke="#000000" cx="722.9973" cy="-369.8182" rx="24.8972" ry="24.8972"/>
<text text-anchor="middle" x="722.9973" y="-366.1182" font-family="Times,serif" font-size="14.00" fill="#000000">203</text>
</g>
<!-- 310&#45;&#45;203 -->
<g id="edge11" class="edge">
<title>310&#45;&#45;203</title>
<path fill="none" stroke="transparent" d="M659.3795,-1605.4221C667.6562,-1444.6698 713.4699,-554.8632 721.7232,-394.5642"/>
</g>
<!-- 111 -->
<g id="node13" class="node">
<title>111</title>
<ellipse fill="#4169e1" stroke="#000000" cx="1793.4291" cy="-1912.5671" rx="24.8972" ry="24.8972"/>
<text text-anchor="middle" x="1793.4291" y="-1908.8671" font-family="Times,serif" font-size="14.00" fill="#000000">111</text>
</g>
<!-- 310&#45;&#45;111 -->
<g id="edge12" class="edge">
<title>310&#45;&#45;111</title>
<path fill="none" stroke="transparent" d="M682.0726,-1636.278C830.3461,-1673.1396 1620.9424,-1869.6859 1769.3928,-1906.5915"/>
</g>
<!-- 32 -->
<g id="node14" class="node">
<title>32</title>
<ellipse fill="#4169e1" stroke="#000000" cx="2280.9106" cy="-2246.7373" rx="20.2975" ry="20.2975"/>
<text text-anchor="middle" x="2280.9106" y="-2243.0373" font-family="Times,serif" font-size="14.00" fill="#000000">32</text>
</g>
<!-- 310&#45;&#45;32 -->
<g id="edge13" class="edge">
<title>310&#45;&#45;32</title>
<path fill="none" stroke="transparent" d="M681.35,-1639.15C866.096,-1709.3251 2093.6792,-2175.6181 2261.836,-2239.4918"/>
</g>
<!-- 109 -->
<g id="node15" class="node">
<title>109</title>
<ellipse fill="#4169e1" stroke="#000000" cx="1906.4122" cy="-2828.9006" rx="24.8972" ry="24.8972"/>
<text text-anchor="middle" x="1906.4122" y="-2825.2006" font-family="Times,serif" font-size="14.00" fill="#000000">109</text>
</g>
<!-- 310&#45;&#45;109 -->
<g id="edge14" class="edge">
<title>310&#45;&#45;109</title>
<path fill="none" stroke="transparent" d="M676.2254,-1647.7233C818.0427,-1783.8907 1747.7436,-2676.5532 1888.5549,-2811.7547"/>
</g>
<!-- 429 -->
<g id="node16" class="node">
<title>429</title>
<ellipse fill="#4169e1" stroke="#000000" cx="2877.7735" cy="-1848.9091" rx="24.8972" ry="24.8972"/>
<text text-anchor="middle" x="2877.7735" y="-1845.2091" font-family="Times,serif" font-size="14.00" fill="#000000">429</text>
</g>
<!-- 310&#45;&#45;429 -->
<g id="edge15" class="edge">
<title>310&#45;&#45;429</title>
<path fill="none" stroke="transparent" d="M683.0257,-1632.7726C910.6926,-1655.193 2626.1989,-1824.1343 2853.0356,-1846.473"/>
</g>
<!-- 97 -->
<g id="node17" class="node">
<title>97</title>
<ellipse fill="#4169e1" stroke="#000000" cx="2012.9001" cy="-1205.0108" rx="20.2975" ry="20.2975"/>
<text text-anchor="middle" x="2012.9001" y="-1201.3108" font-family="Times,serif" font-size="14.00" fill="#000000">97</text>
</g>
<!-- 310&#45;&#45;97 -->
<g id="edge16" class="edge">
<title>310&#45;&#45;97</title>
<path fill="none" stroke="transparent" d="M681.8995,-1622.8457C848.7846,-1570.4562 1841.2027,-1258.911 1993.3364,-1211.1524"/>
</g>
<!-- 15 -->
<g id="node18" class="node">
<title>15</title>
<ellipse fill="#4169e1" stroke="#000000" cx="2875.3484" cy="-3068.428" rx="20.2975" ry="20.2975"/>
<text text-anchor="middle" x="2875.3484" y="-3064.728" font-family="Times,serif" font-size="14.00" fill="#000000">15</text>
</g>
<!-- 310&#45;&#45;15 -->
<g id="edge17" class="edge">
<title>310&#45;&#45;15</title>
<path fill="none" stroke="transparent" d="M678.9802,-1643.8622C891.8827,-1781.9509 2664.9756,-2931.9801 2858.2709,-3057.3515"/>
</g>
<!-- 6 -->
<g id="node19" class="node">
<title>6</title>
<ellipse fill="#4169e1" stroke="#000000" cx="424.5153" cy="-2374.4533" rx="18" ry="18"/>
<text text-anchor="middle" x="424.5153" y="-2370.7533" font-family="Times,serif" font-size="14.00" fill="#000000">6</text>
</g>
<!-- 310&#45;&#45;6 -->
<g id="edge18" class="edge">
<title>310&#45;&#45;6</title>
<path fill="none" stroke="transparent" d="M650.5905,-1654.2336C614.67,-1768.6676 460.8085,-2258.8321 429.9259,-2357.2163"/>
</g>
<!-- 426 -->
<g id="node20" class="node">
<title>426</title>
<ellipse fill="#4169e1" stroke="#000000" cx="1678.3894" cy="-4400.9981" rx="24.8972" ry="24.8972"/>
<text text-anchor="middle" x="1678.3894" y="-4397.2981" font-family="Times,serif" font-size="14.00" fill="#000000">426</text>
</g>
<!-- 310&#45;&#45;426 -->
<g id="edge19" class="edge">
<title>310&#45;&#45;426</title>
<path fill="none" stroke="transparent" d="M666.7643,-1653.8525C760.0465,-1907.1676 1576.7632,-4125.0244 1669.775,-4377.6051"/>
</g>
<!-- 219&#45;&#45;164 -->
<g id="edge20" class="edge">
<title>219&#45;&#45;164</title>
<path fill="none" stroke="transparent" d="M4050.8672,-1086.3523C3795.4077,-1214.0628 1425.2517,-2398.9626 1169.081,-2527.0287"/>
</g>
<!-- 219&#45;&#45;172 -->
<g id="edge21" class="edge">
<title>219&#45;&#45;172</title>
<path fill="none" stroke="transparent" d="M4063.6362,-1098.258C3986.684,-1284.5695 3467.2357,-2542.2233 3390.554,-2727.8799"/>
</g>
<!-- 219&#45;&#45;226 -->
<g id="edge22" class="edge">
<title>219&#45;&#45;226</title>
<path fill="none" stroke="transparent" d="M4053.0973,-1090.4425C3810.1166,-1274.9672 1437.1017,-3077.0849 1194.4136,-3261.3874"/>
</g>
<!-- 219&#45;&#45;210 -->
<g id="edge23" class="edge">
<title>219&#45;&#45;210</title>
<path fill="none" stroke="transparent" d="M4048.3525,-1074.3837C3726.4024,-1063.663 373.1752,-952.0029 49.7386,-941.2327"/>
</g>
<!-- 219&#45;&#45;243 -->
<g id="edge24" class="edge">
<title>219&#45;&#45;243</title>
<path fill="none" stroke="transparent" d="M4049.7772,-1066.7294C3808.1975,-979.1003 1770.8393,-240.0816 1528.9645,-152.3454"/>
</g>
<!-- 219&#45;&#45;267 -->
<g id="edge25" class="edge">
<title>219&#45;&#45;267</title>
<path fill="none" stroke="transparent" d="M4048.4575,-1078.5325C3867.2771,-1102.908 2745.5086,-1253.8275 2564.8497,-1278.1329"/>
</g>
<!-- 219&#45;&#45;116 -->
<g id="edge26" class="edge">
<title>219&#45;&#45;116</title>
<path fill="none" stroke="transparent" d="M4048.4287,-1076.3572C3795.4245,-1088.099 1680.9492,-1186.2311 1427.877,-1197.9761"/>
</g>
<!-- 219&#45;&#45;100 -->
<g id="edge27" class="edge">
<title>219&#45;&#45;100</title>
<path fill="none" stroke="transparent" d="M4061.6362,-1052.8723C4002.0737,-937.3779 3729.5135,-408.8708 3670.0839,-293.6341"/>
</g>
<!-- 219&#45;&#45;322 -->
<g id="edge28" class="edge">
<title>219&#45;&#45;322</title>
<path fill="none" stroke="transparent" d="M4052.5258,-1061.543C3880.08,-947.3051 2680.4912,-152.6286 2508.0137,-38.3697"/>
</g>
<!-- 219&#45;&#45;203 -->
<g id="edge29" class="edge">
<title>219&#45;&#45;203</title>
<path fill="none" stroke="transparent" d="M4048.5867,-1070.0365C3760.6787,-1009.4161 1034.1296,-435.3285 747.3645,-374.9488"/>
</g>
<!-- 219&#45;&#45;111 -->
<g id="edge30" class="edge">
<title>219&#45;&#45;111</title>
<path fill="none" stroke="transparent" d="M4049.85,-1083.77C3824.8855,-1166.4008 2042.2371,-1821.1784 1816.8308,-1903.9715"/>
</g>
<!-- 219&#45;&#45;32 -->
<g id="edge31" class="edge">
<title>219&#45;&#45;32</title>
<path fill="none" stroke="transparent" d="M4052.4083,-1088.7716C3865.0265,-1211.2565 2467.6848,-2124.6496 2297.8089,-2235.6914"/>
</g>
<!-- 219&#45;&#45;109 -->
<g id="edge32" class="edge">
<title>219&#45;&#45;109</title>
<path fill="none" stroke="transparent" d="M4053.7624,-1090.906C3851.3593,-1254.7245 2128.7393,-2648.9563 1925.8941,-2813.1326"/>
</g>
<!-- 219&#45;&#45;429 -->
<g id="edge33" class="edge">
<title>219&#45;&#45;429</title>
<path fill="none" stroke="transparent" d="M4052.4078,-1088.6386C3907.1596,-1182.649 3044.2098,-1741.1849 2898.6242,-1835.4137"/>
</g>
<!-- 219&#45;&#45;97 -->
<g id="edge34" class="edge">
<title>219&#45;&#45;97</title>
<path fill="none" stroke="transparent" d="M4048.2177,-1076.7808C3828.8758,-1090.5999 2231.9466,-1191.2103 2033.1873,-1203.7327"/>
</g>
<!-- 219&#45;&#45;15 -->
<g id="edge35" class="edge">
<title>219&#45;&#45;15</title>
<path fill="none" stroke="transparent" d="M4060.314,-1096.5792C3938.9548,-1298.5277 2995.9215,-2867.7876 2885.8264,-3050.9919"/>
</g>
<!-- 219&#45;&#45;6 -->
<g id="edge36" class="edge">
<title>219&#45;&#45;6</title>
<path fill="none" stroke="transparent" d="M4049.8564,-1083.5063C3752.1617,-1189.5124 697.5929,-2277.2131 441.5817,-2368.3761"/>
</g>
<!-- 219&#45;&#45;426 -->
<g id="edge37" class="edge">
<title>219&#45;&#45;426</title>
<path fill="none" stroke="transparent" d="M4058.4841,-1095.5854C3867.9446,-1360.2016 1882.4868,-4117.553 1692.9086,-4380.8342"/>
</g>
<!-- 164&#45;&#45;172 -->
<g id="edge38" class="edge">
<title>164&#45;&#45;172</title>
<path fill="none" stroke="transparent" d="M1171.3749,-2540.5863C1399.0028,-2562.2364 3127.6012,-2726.6467 3356.1769,-2748.387"/>
</g>
<!-- 164&#45;&#45;226 -->
<g id="edge39" class="edge">
<title>164&#45;&#45;226</title>
<path fill="none" stroke="transparent" d="M1147.6022,-2563.2251C1151.8471,-2676.2042 1169.2219,-3138.6331 1173.4664,-3251.5993"/>
</g>
<!-- 164&#45;&#45;210 -->
<g id="edge40" class="edge">
<title>164&#45;&#45;210</title>
<path fill="none" stroke="transparent" d="M1132.273,-2517.7422C1010.8944,-2344.8819 159.679,-1132.6311 38.9312,-960.6692"/>
</g>
<!-- 164&#45;&#45;243 -->
<g id="edge41" class="edge">
<title>164&#45;&#45;243</title>
<path fill="none" stroke="transparent" d="M1150.3319,-2513.7579C1185.7447,-2277.4781 1466.3601,-405.1661 1501.8424,-168.4223"/>
</g>
<!-- 164&#45;&#45;267 -->
<g id="edge42" class="edge">
<title>164&#45;&#45;267</title>
<path fill="none" stroke="transparent" d="M1165.0511,-2521.6535C1317.3804,-2384.2811 2368.5404,-1436.3321 2521.7017,-1298.2093"/>
</g>
<!-- 164&#45;&#45;116 -->
<g id="edge43" class="edge">
<title>164&#45;&#45;116</title>
<path fill="none" stroke="transparent" d="M1151.3337,-2513.85C1183.0731,-2348.1303 1366.7849,-1388.9224 1398.4794,-1223.437"/>
</g>
<!-- 164&#45;&#45;100 -->
<g id="edge44" class="edge">
<title>164&#45;&#45;100</title>
<path fill="none" stroke="transparent" d="M1165.0853,-2521.6116C1380.8481,-2326.9037 3423.2251,-483.8289 3640.0153,-288.1938"/>
</g>
<!-- 164&#45;&#45;322 -->
<g id="edge45" class="edge">
<title>164&#45;&#45;322</title>
<path fill="none" stroke="transparent" d="M1158.4577,-2516.124C1282.8571,-2282.9026 2351.8841,-278.7142 2475.6967,-46.593"/>
</g>
<!-- 164&#45;&#45;203 -->
<g id="edge46" class="edge">
<title>164&#45;&#45;203</title>
<path fill="none" stroke="transparent" d="M1141.9053,-2513.8836C1098.4736,-2291.5903 771.3574,-617.3359 727.7872,-394.3337"/>
</g>
<!-- 164&#45;&#45;111 -->
<g id="edge47" class="edge">
<title>164&#45;&#45;111</title>
<path fill="none" stroke="transparent" d="M1164.6365,-2520.8489C1257.5669,-2430.9499 1682.8197,-2019.5684 1775.5427,-1929.87"/>
</g>
<!-- 164&#45;&#45;32 -->
<g id="edge48" class="edge">
<title>164&#45;&#45;32</title>
<path fill="none" stroke="transparent" d="M1170.6153,-2532.0803C1320.1854,-2493.6412 2123.9858,-2287.0665 2261.0344,-2251.8454"/>
</g>
<!-- 164&#45;&#45;109 -->
<g id="edge49" class="edge">
<title>164&#45;&#45;109</title>
<path fill="none" stroke="transparent" d="M1169.8159,-2547.0936C1282.2223,-2590.0981 1770.2333,-2776.8013 1883.0672,-2819.9693"/>
</g>
<!-- 164&#45;&#45;429 -->
<g id="edge50" class="edge">
<title>164&#45;&#45;429</title>
<path fill="none" stroke="transparent" d="M1169.8257,-2529.0126C1360.2033,-2453.2044 2664.6353,-1933.7806 2854.6929,-1858.0998"/>
</g>
<!-- 164&#45;&#45;97 -->
<g id="edge51" class="edge">
<title>164&#45;&#45;97</title>
<path fill="none" stroke="transparent" d="M1160.2698,-2517.2941C1262.5097,-2359.9366 1908.8979,-1365.0805 2001.7873,-1222.1145"/>
</g>
<!-- 164&#45;&#45;15 -->
<g id="edge52" class="edge">
<title>164&#45;&#45;15</title>
<path fill="none" stroke="transparent" d="M1170.4426,-2545.5291C1364.1833,-2604.9499 2680.8003,-3008.7596 2856.0823,-3062.519"/>
</g>
<!-- 164&#45;&#45;6 -->
<g id="edge53" class="edge">
<title>164&#45;&#45;6</title>
<path fill="none" stroke="transparent" d="M1122.2223,-2532.6927C1009.2581,-2507.0725 539.0994,-2400.4409 442.077,-2378.4362"/>
</g>
<!-- 164&#45;&#45;426 -->
<g id="edge54" class="edge">
<title>164&#45;&#45;426</title>
<path fill="none" stroke="transparent" d="M1153.4831,-2562.1276C1210.9771,-2763.5425 1613.9945,-4175.4075 1671.5533,-4377.0496"/>
</g>
<!-- 172&#45;&#45;226 -->
<g id="edge55" class="edge">
<title>172&#45;&#45;226</title>
<path fill="none" stroke="transparent" d="M3357.0745,-2756.484C3133.6938,-2809.7123 1423.2257,-3217.292 1198.6951,-3270.7943"/>
</g>
<!-- 172&#45;&#45;210 -->
<g id="edge56" class="edge">
<title>172&#45;&#45;210</title>
<path fill="none" stroke="transparent" d="M3359.2298,-2738.9592C3085.0636,-2591.081 321.2676,-1100.3609 46.6477,-952.238"/>
</g>
<!-- 172&#45;&#45;243 -->
<g id="edge57" class="edge">
<title>172&#45;&#45;243</title>
<path fill="none" stroke="transparent" d="M3366.5515,-2730.5301C3201.5245,-2501.1548 1685.4602,-393.9384 1520.1342,-164.1476"/>
</g>
<!-- 172&#45;&#45;267 -->
<g id="edge58" class="edge">
<title>172&#45;&#45;267</title>
<path fill="none" stroke="transparent" d="M3368.7311,-2729.1348C3272.7584,-2561.4203 2648.3869,-1470.3166 2552.6195,-1302.9609"/>
</g>
<!-- 172&#45;&#45;116 -->
<g id="edge59" class="edge">
<title>172&#45;&#45;116</title>
<path fill="none" stroke="transparent" d="M3361.528,-2735.4009C3168.8411,-2584.246 1614.5938,-1365.0042 1422.5717,-1214.3709"/>
</g>
<!-- 172&#45;&#45;100 -->
<g id="edge60" class="edge">
<title>172&#45;&#45;100</title>
<path fill="none" stroke="transparent" d="M3383.8964,-2725.8167C3411.1138,-2482.653 3628.7548,-538.2232 3655.8536,-296.1194"/>
</g>
<!-- 172&#45;&#45;322 -->
<g id="edge61" class="edge">
<title>172&#45;&#45;322</title>
<path fill="none" stroke="transparent" d="M3373.3783,-2727.191C3291.1016,-2476.2298 2577.786,-300.4684 2495.1687,-48.4684"/>
</g>
<!-- 172&#45;&#45;203 -->
<g id="edge62" class="edge">
<title>172&#45;&#45;203</title>
<path fill="none" stroke="transparent" d="M3362.3479,-2733.957C3137.6572,-2532.6953 965.8819,-587.3766 741.6711,-386.5448"/>
</g>
<!-- 172&#45;&#45;111 -->
<g id="edge63" class="edge">
<title>172&#45;&#45;111</title>
<path fill="none" stroke="transparent" d="M3358.9639,-2739.069C3181.4603,-2645.3585 1992.083,-2017.4436 1815.364,-1924.1473"/>
</g>
<!-- 172&#45;&#45;32 -->
<g id="edge64" class="edge">
<title>172&#45;&#45;32</title>
<path fill="none" stroke="transparent" d="M3358.6293,-2740.4615C3215.2453,-2674.7745 2430.2481,-2315.1517 2299.4045,-2255.2096"/>
</g>
<!-- 172&#45;&#45;109 -->
<g id="edge65" class="edge">
<title>172&#45;&#45;109</title>
<path fill="none" stroke="transparent" d="M3356.4341,-2752.0652C3179.7658,-2761.4267 2108.9433,-2818.1686 1931.356,-2827.5788"/>
</g>
<!-- 172&#45;&#45;429 -->
<g id="edge66" class="edge">
<title>172&#45;&#45;429</title>
<path fill="none" stroke="transparent" d="M3368.9121,-2728.9118C3299.9271,-2605.3072 2959.184,-1994.7772 2890.0304,-1870.8705"/>
</g>
<!-- 172&#45;&#45;97 -->
<g id="edge67" class="edge">
<title>172&#45;&#45;97</title>
<path fill="none" stroke="transparent" d="M3364.5434,-2732.0476C3218.8796,-2567.482 2158.3677,-1369.3547 2026.3727,-1220.2316"/>
</g>
<!-- 172&#45;&#45;15 -->
<g id="edge68" class="edge">
<title>172&#45;&#45;15</title>
<path fill="none" stroke="transparent" d="M3360.0169,-2764.0034C3276.3569,-2816.551 2968.692,-3009.7981 2892.5026,-3057.6533"/>
</g>
<!-- 172&#45;&#45;6 -->
<g id="edge69" class="edge">
<title>172&#45;&#45;6</title>
<path fill="none" stroke="transparent" d="M3356.4328,-2747.6178C3085.7796,-2713.1699 674.9544,-2406.3283 442.509,-2376.7434"/>
</g>
<!-- 172&#45;&#45;426 -->
<g id="edge70" class="edge">
<title>172&#45;&#45;426</title>
<path fill="none" stroke="transparent" d="M3363.1345,-2768.1743C3192.8874,-2933.1746 1866.6189,-4218.5695 1696.3618,-4383.5795"/>
</g>
<!-- 226&#45;&#45;210 -->
<g id="edge71" class="edge">
<title>226&#45;&#45;210</title>
<path fill="none" stroke="transparent" d="M1163.3947,-3254.2094C1052.9173,-3029.7215 145.9709,-1186.8235 35.6712,-962.6967"/>
</g>
<!-- 226&#45;&#45;243 -->
<g id="edge72" class="edge">
<title>226&#45;&#45;243</title>
<path fill="none" stroke="transparent" d="M1177.0222,-3251.8219C1206.386,-2974.0105 1473.5157,-446.6951 1502.9045,-168.6476"/>
</g>
<!-- 226&#45;&#45;267 -->
<g id="edge73" class="edge">
<title>226&#45;&#45;267</title>
<path fill="none" stroke="transparent" d="M1188.3688,-3256.1857C1323.1561,-3059.3037 2391.2287,-1499.1846 2526.2807,-1301.9159"/>
</g>
<!-- 226&#45;&#45;116 -->
<g id="edge74" class="edge">
<title>226&#45;&#45;116</title>
<path fill="none" stroke="transparent" d="M1177.1332,-3251.8042C1201.163,-3033.5523 1376.3964,-1441.9868 1400.4113,-1223.8702"/>
</g>
<!-- 226&#45;&#45;100 -->
<g id="edge75" class="edge">
<title>226&#45;&#45;100</title>
<path fill="none" stroke="transparent" d="M1190.2688,-3257.3918C1391.4077,-3014.0722 3441.0017,-534.6595 3642.6697,-290.6998"/>
</g>
<!-- 226&#45;&#45;322 -->
<g id="edge76" class="edge">
<title>226&#45;&#45;322</title>
<path fill="none" stroke="transparent" d="M1183.67,-3253.6355C1294.5987,-2978.8941 2366.2984,-324.5744 2477.9798,-47.9686"/>
</g>
<!-- 226&#45;&#45;203 -->
<g id="edge77" class="edge">
<title>226&#45;&#45;203</title>
<path fill="none" stroke="transparent" d="M1170.5707,-3251.8915C1129.2999,-2986.1347 767.9598,-659.3465 726.8086,-394.3602"/>
</g>
<!-- 226&#45;&#45;111 -->
<g id="edge78" class="edge">
<title>226&#45;&#45;111</title>
<path fill="none" stroke="transparent" d="M1184.6329,-3254.0453C1258.4763,-3091.332 1709.2866,-2097.9746 1783.1851,-1935.1398"/>
</g>
<!-- 226&#45;&#45;32 -->
<g id="edge79" class="edge">
<title>226&#45;&#45;32</title>
<path fill="none" stroke="transparent" d="M1192.6874,-3259.5666C1325.8766,-3135.605 2145.1422,-2373.0995 2266.0182,-2260.5979"/>
</g>
<!-- 226&#45;&#45;109 -->
<g id="edge80" class="edge">
<title>226&#45;&#45;109</title>
<path fill="none" stroke="transparent" d="M1195.5232,-3263.6668C1301.9474,-3198.5798 1778.5857,-2907.0768 1885.2084,-2841.8684"/>
</g>
<!-- 226&#45;&#45;429 -->
<g id="edge81" class="edge">
<title>226&#45;&#45;429</title>
<path fill="none" stroke="transparent" d="M1193.5347,-3260.5488C1368.2453,-3114.1157 2684.7164,-2010.7193 2858.7898,-1864.8202"/>
</g>
<!-- 226&#45;&#45;97 -->
<g id="edge82" class="edge">
<title>226&#45;&#45;97</title>
<path fill="none" stroke="transparent" d="M1183.6784,-3253.6719C1269.7233,-3041.0907 1927.3001,-1416.4926 2005.3389,-1223.6913"/>
</g>
<!-- 226&#45;&#45;15 -->
<g id="edge83" class="edge">
<title>226&#45;&#45;15</title>
<path fill="none" stroke="transparent" d="M1199.1058,-3273.5595C1393.7748,-3249.7367 2677.9543,-3092.5843 2855.098,-3070.9062"/>
</g>
<!-- 226&#45;&#45;6 -->
<g id="edge84" class="edge">
<title>226&#45;&#45;6</title>
<path fill="none" stroke="transparent" d="M1158.3957,-3257.3227C1058.5267,-3137.1788 522.473,-2492.2979 436.2298,-2388.546"/>
</g>
<!-- 226&#45;&#45;426 -->
<g id="edge85" class="edge">
<title>226&#45;&#45;426</title>
<path fill="none" stroke="transparent" d="M1184.5863,-3299.297C1249.3335,-3443.7516 1603.0295,-4232.8662 1668.0995,-4378.0407"/>
</g>
<!-- 210&#45;&#45;243 -->
<g id="edge86" class="edge">
<title>210&#45;&#45;243</title>
<path fill="none" stroke="transparent" d="M46.4902,-928.6764C215.4287,-837.8025 1314.0026,-246.8664 1483.5637,-155.6575"/>
</g>
<!-- 210&#45;&#45;267 -->
<g id="edge87" class="edge">
<title>210&#45;&#45;267</title>
<path fill="none" stroke="transparent" d="M49.1907,-943.7193C292.4622,-976.6993 2271.0965,-1244.9397 2515.558,-1278.081"/>
</g>
<!-- 210&#45;&#45;116 -->
<g id="edge88" class="edge">
<title>210&#45;&#45;116</title>
<path fill="none" stroke="transparent" d="M49.2082,-944.9993C218.253,-976.7281 1209.4832,-1162.7768 1378.6025,-1194.5196"/>
</g>
<!-- 210&#45;&#45;100 -->
<g id="edge89" class="edge">
<title>210&#45;&#45;100</title>
<path fill="none" stroke="transparent" d="M49.3514,-935.8602C351.3751,-880.2585 3332.0352,-331.528 3633.9796,-275.9409"/>
</g>
<!-- 210&#45;&#45;322 -->
<g id="edge90" class="edge">
<title>210&#45;&#45;322</title>
<path fill="none" stroke="transparent" d="M47.8919,-931.7746C282.8948,-844.3931 2229.3697,-120.6325 2464.2141,-33.31"/>
</g>
<!-- 210&#45;&#45;203 -->
<g id="edge91" class="edge">
<title>210&#45;&#45;203</title>
<path fill="none" stroke="transparent" d="M44.1032,-924.5427C144.4381,-842.559 603.5747,-467.3984 703.6858,-385.5977"/>
</g>
<!-- 210&#45;&#45;111 -->
<g id="edge92" class="edge">
<title>210&#45;&#45;111</title>
<path fill="none" stroke="transparent" d="M46.423,-952.3399C234.3666,-1055.6416 1582.8229,-1796.8091 1771.5204,-1900.5251"/>
</g>
<!-- 210&#45;&#45;32 -->
<g id="edge93" class="edge">
<title>210&#45;&#45;32</title>
<path fill="none" stroke="transparent" d="M46.3048,-952.9092C264.4612,-1079.2209 2065.1953,-2121.8389 2263.2449,-2236.5089"/>
</g>
<!-- 210&#45;&#45;109 -->
<g id="edge94" class="edge">
<title>210&#45;&#45;109</title>
<path fill="none" stroke="transparent" d="M42.4202,-958.1852C221.9843,-1138.3969 1709.2717,-2631.0491 1888.7147,-2811.1393"/>
</g>
<!-- 210&#45;&#45;429 -->
<g id="edge95" class="edge">
<title>210&#45;&#45;429</title>
<path fill="none" stroke="transparent" d="M48.5059,-947.9801C307.4051,-1030.4219 2595.6757,-1759.0802 2854.0632,-1841.359"/>
</g>
<!-- 210&#45;&#45;97 -->
<g id="edge96" class="edge">
<title>210&#45;&#45;97</title>
<path fill="none" stroke="transparent" d="M49.4761,-943.6966C263.6582,-972.2023 1798.7395,-1176.508 1992.7599,-1202.3303"/>
</g>
<!-- 210&#45;&#45;15 -->
<g id="edge97" class="edge">
<title>210&#45;&#45;15</title>
<path fill="none" stroke="transparent" d="M44.8132,-955.4152C287.0206,-1136.2245 2638.9121,-2891.9268 2858.8697,-3056.1266"/>
</g>
<!-- 210&#45;&#45;6 -->
<g id="edge98" class="edge">
<title>210&#45;&#45;6</title>
<path fill="none" stroke="transparent" d="M31.3865,-964.3896C79.9736,-1138.6607 378.0077,-2207.6411 419.6785,-2357.1049"/>
</g>
<!-- 210&#45;&#45;426 -->
<g id="edge99" class="edge">
<title>210&#45;&#45;426</title>
<path fill="none" stroke="transparent" d="M35.4755,-962.9528C170.5563,-1245.6298 1532.2703,-4095.2219 1667.5748,-4378.3668"/>
</g>
<!-- 243&#45;&#45;267 -->
<g id="edge100" class="edge">
<title>243&#45;&#45;267</title>
<path fill="none" stroke="transparent" d="M1522.1992,-162.1732C1644.3777,-296.4915 2400.1652,-1127.3748 2523.3395,-1262.7877"/>
</g>
<!-- 243&#45;&#45;116 -->
<g id="edge101" class="edge">
<title>243&#45;&#45;116</title>
<path fill="none" stroke="transparent" d="M1503.1211,-168.6313C1489.2346,-311.7519 1419.4449,-1031.036 1405.5457,-1174.2877"/>
</g>
<!-- 243&#45;&#45;100 -->
<g id="edge102" class="edge">
<title>243&#45;&#45;100</title>
<path fill="none" stroke="transparent" d="M1530.451,-145.3203C1753.9212,-158.5599 3409.8753,-256.6677 3633.6287,-269.9241"/>
</g>
<!-- 243&#45;&#45;322 -->
<g id="edge103" class="edge">
<title>243&#45;&#45;322</title>
<path fill="none" stroke="transparent" d="M1530.2878,-140.8388C1666.8013,-124.2731 2326.3385,-44.2394 2462.6809,-27.6945"/>
</g>
<!-- 243&#45;&#45;203 -->
<g id="edge104" class="edge">
<title>243&#45;&#45;203</title>
<path fill="none" stroke="transparent" d="M1481.6794,-150.7299C1365.9026,-184.1633 863.2594,-329.3141 747.0423,-362.8746"/>
</g>
<!-- 243&#45;&#45;111 -->
<g id="edge105" class="edge">
<title>243&#45;&#45;111</title>
<path fill="none" stroke="transparent" d="M1509.5411,-168.5092C1541.7289,-366.2541 1757.406,-1691.26 1789.4515,-1888.1309"/>
</g>
<!-- 243&#45;&#45;32 -->
<g id="edge106" class="edge">
<title>243&#45;&#45;32</title>
<path fill="none" stroke="transparent" d="M1514.1015,-167.1004C1593.6702,-382.8958 2201.7535,-2032.0579 2273.9186,-2227.7743"/>
</g>
<!-- 243&#45;&#45;109 -->
<g id="edge107" class="edge">
<title>243&#45;&#45;109</title>
<path fill="none" stroke="transparent" d="M1509.1763,-168.2914C1546.8943,-420.9195 1864.9886,-2551.4537 1902.7527,-2804.3904"/>
</g>
<!-- 243&#45;&#45;429 -->
<g id="edge108" class="edge">
<title>243&#45;&#45;429</title>
<path fill="none" stroke="transparent" d="M1521.1736,-163.286C1662.7996,-339.2613 2721.2939,-1654.4777 2862.2751,-1829.6518"/>
</g>
<!-- 243&#45;&#45;97 -->
<g id="edge109" class="edge">
<title>243&#45;&#45;97</title>
<path fill="none" stroke="transparent" d="M1516.3582,-166.4985C1583.5702,-307.0719 1942.7761,-1058.3472 2004.0182,-1186.4345"/>
</g>
<!-- 243&#45;&#45;15 -->
<g id="edge110" class="edge">
<title>243&#45;&#45;15</title>
<path fill="none" stroke="transparent" d="M1516.1551,-166.5363C1637.3668,-425.3246 2756.5485,-2814.789 2866.6417,-3049.8392"/>
</g>
<!-- 243&#45;&#45;6 -->
<g id="edge111" class="edge">
<title>243&#45;&#45;6</title>
<path fill="none" stroke="transparent" d="M1494.6517,-166.2826C1387.5819,-387.2155 523.9979,-2169.1761 432.3767,-2358.2316"/>
</g>
<!-- 243&#45;&#45;426 -->
<g id="edge112" class="edge">
<title>243&#45;&#45;426</title>
<path fill="none" stroke="transparent" d="M1506.5305,-168.5774C1519.9666,-499.4724 1663.9149,-4044.5298 1677.3805,-4376.1519"/>
</g>
<!-- 267&#45;&#45;116 -->
<g id="edge113" class="edge">
<title>267&#45;&#45;116</title>
<path fill="none" stroke="transparent" d="M2515.4929,-1279.6398C2365.2715,-1268.7663 1578.7767,-1211.8377 1428.1046,-1200.9317"/>
</g>
<!-- 267&#45;&#45;100 -->
<g id="edge114" class="edge">
<title>267&#45;&#45;100</title>
<path fill="none" stroke="transparent" d="M2558.7793,-1264.7472C2692.1124,-1144.3248 3505.7428,-409.4787 3639.8994,-288.3125"/>
</g>
<!-- 267&#45;&#45;322 -->
<g id="edge115" class="edge">
<title>267&#45;&#45;322</title>
<path fill="none" stroke="transparent" d="M2539.2565,-1256.6142C2532.5104,-1096.4277 2495.1854,-210.1433 2488.4255,-49.6281"/>
</g>
<!-- 267&#45;&#45;203 -->
<g id="edge116" class="edge">
<title>267&#45;&#45;203</title>
<path fill="none" stroke="transparent" d="M2517.98,-1270.2382C2324.7736,-1173.3197 937.9316,-477.636 745.2032,-380.9574"/>
</g>
<!-- 267&#45;&#45;111 -->
<g id="edge117" class="edge">
<title>267&#45;&#45;111</title>
<path fill="none" stroke="transparent" d="M2521.0892,-1297.6708C2416.516,-1386.0385 1916.7673,-1808.3423 1812.5147,-1896.4391"/>
</g>
<!-- 267&#45;&#45;32 -->
<g id="edge118" class="edge">
<title>267&#45;&#45;32</title>
<path fill="none" stroke="transparent" d="M2533.8899,-1305.297C2497.6906,-1440.0097 2319.3334,-2103.7502 2286.2096,-2227.0176"/>
</g>
<!-- 267&#45;&#45;109 -->
<g id="edge119" class="edge">
<title>267&#45;&#45;109</title>
<path fill="none" stroke="transparent" d="M2530.8492,-1304.5116C2458.1173,-1482.0662 1988.3136,-2628.9612 1915.8039,-2805.9733"/>
</g>
<!-- 267&#45;&#45;429 -->
<g id="edge120" class="edge">
<title>267&#45;&#45;429</title>
<path fill="none" stroke="transparent" d="M2553.119,-1302.9882C2606.6355,-1392.9785 2811.9247,-1738.1815 2865.1236,-1827.6378"/>
</g>
<!-- 267&#45;&#45;97 -->
<g id="edge121" class="edge">
<title>267&#45;&#45;97</title>
<path fill="none" stroke="transparent" d="M2515.5715,-1277.8519C2425.3542,-1264.7787 2114.9399,-1219.7972 2032.9121,-1207.9107"/>
</g>
<!-- 267&#45;&#45;15 -->
<g id="edge122" class="edge">
<title>267&#45;&#45;15</title>
<path fill="none" stroke="transparent" d="M2544.9107,-1306.0169C2582.4607,-1506.2924 2837.6419,-2867.3179 2871.6143,-3048.5121"/>
</g>
<!-- 267&#45;&#45;6 -->
<g id="edge123" class="edge">
<title>267&#45;&#45;6</title>
<path fill="none" stroke="transparent" d="M2518.3234,-1292.7896C2306.0703,-1402.4398 624.0484,-2271.3742 440.712,-2366.086"/>
</g>
<!-- 267&#45;&#45;426 -->
<g id="edge124" class="edge">
<title>267&#45;&#45;426</title>
<path fill="none" stroke="transparent" d="M2533.614,-1305.6411C2457.7375,-1580.2647 1760.3572,-4104.3278 1684.9852,-4377.1255"/>
</g>
<!-- 116&#45;&#45;100 -->
<g id="edge125" class="edge">
<title>116&#45;&#45;100</title>
<path fill="none" stroke="transparent" d="M1426.1939,-1189.6402C1648.7661,-1098.0924 3412.4577,-372.6555 3635.4671,-280.9279"/>
</g>
<!-- 116&#45;&#45;322 -->
<g id="edge126" class="edge">
<title>116&#45;&#45;322</title>
<path fill="none" stroke="transparent" d="M1420.1667,-1180.6769C1547.0594,-1043.2293 2343.6215,-180.4093 2470.3823,-43.1046"/>
</g>
<!-- 116&#45;&#45;203 -->
<g id="edge127" class="edge">
<title>116&#45;&#45;203</title>
<path fill="none" stroke="transparent" d="M1387.3249,-1179.8457C1295.3772,-1067.7321 830.4347,-500.8186 738.7217,-388.9912"/>
</g>
<!-- 116&#45;&#45;111 -->
<g id="edge128" class="edge">
<title>116&#45;&#45;111</title>
<path fill="none" stroke="transparent" d="M1415.0297,-1220.8658C1472.7744,-1326.4212 1723.4722,-1784.6882 1781.4365,-1890.6449"/>
</g>
<!-- 116&#45;&#45;32 -->
<g id="edge129" class="edge">
<title>116&#45;&#45;32</title>
<path fill="none" stroke="transparent" d="M1419.1206,-1218.2019C1528.7939,-1349.0956 2168.6524,-2112.7584 2267.9608,-2231.2818"/>
</g>
<!-- 116&#45;&#45;109 -->
<g id="edge130" class="edge">
<title>116&#45;&#45;109</title>
<path fill="none" stroke="transparent" d="M1410.4444,-1222.7916C1467.5899,-1407.8478 1842.0465,-2620.4631 1899.1225,-2805.2941"/>
</g>
<!-- 116&#45;&#45;429 -->
<g id="edge131" class="edge">
<title>116&#45;&#45;429</title>
<path fill="none" stroke="transparent" d="M1426.003,-1209.2005C1597.722,-1284.8669 2683.2116,-1763.1773 2854.9117,-1838.8353"/>
</g>
<!-- 116&#45;&#45;97 -->
<g id="edge132" class="edge">
<title>116&#45;&#45;97</title>
<path fill="none" stroke="transparent" d="M1428.1762,-1199.3661C1528.5752,-1200.3353 1900.9552,-1203.9301 1992.4814,-1204.8137"/>
</g>
<!-- 116&#45;&#45;15 -->
<g id="edge133" class="edge">
<title>116&#45;&#45;15</title>
<path fill="none" stroke="transparent" d="M1418.429,-1218.5424C1565.6618,-1405.4874 2729.2641,-2882.9412 2862.8623,-3052.5741"/>
</g>
<!-- 116&#45;&#45;6 -->
<g id="edge134" class="edge">
<title>116&#45;&#45;6</title>
<path fill="none" stroke="transparent" d="M1386.9666,-1218.5438C1268.5495,-1360.7634 536.9321,-2239.44 436.0467,-2360.604"/>
</g>
<!-- 116&#45;&#45;426 -->
<g id="edge135" class="edge">
<title>116&#45;&#45;426</title>
<path fill="none" stroke="transparent" d="M1405.2717,-1223.9687C1429.4905,-1505.6928 1651.9829,-4093.8257 1676.2456,-4376.0601"/>
</g>
<!-- 100&#45;&#45;322 -->
<g id="edge136" class="edge">
<title>100&#45;&#45;322</title>
<path fill="none" stroke="transparent" d="M3634.4256,-266.3085C3482.7034,-234.3503 2663.918,-61.8841 2511.7293,-29.8276"/>
</g>
<!-- 100&#45;&#45;203 -->
<g id="edge137" class="edge">
<title>100&#45;&#45;203</title>
<path fill="none" stroke="transparent" d="M3633.684,-272.2407C3365.2887,-281.2383 1015.4001,-360.0157 747.783,-368.9873"/>
</g>
<!-- 100&#45;&#45;111 -->
<g id="edge138" class="edge">
<title>100&#45;&#45;111</title>
<path fill="none" stroke="transparent" d="M3639.8568,-287.9141C3456.9275,-448.8718 1994.1538,-1735.9515 1812.0217,-1896.2077"/>
</g>
<!-- 100&#45;&#45;32 -->
<g id="edge139" class="edge">
<title>100&#45;&#45;32</title>
<path fill="none" stroke="transparent" d="M3644.3085,-291.9242C3506.5267,-489.4729 2417.6176,-2050.7295 2292.5953,-2229.9841"/>
</g>
<!-- 100&#45;&#45;109 -->
<g id="edge140" class="edge">
<title>100&#45;&#45;109</title>
<path fill="none" stroke="transparent" d="M3644.5156,-291.9912C3487.92,-520.5557 2077.093,-2579.7775 1920.5135,-2808.3186"/>
</g>
<!-- 100&#45;&#45;429 -->
<g id="edge141" class="edge">
<title>100&#45;&#45;429</title>
<path fill="none" stroke="transparent" d="M3647.5816,-293.7048C3559.8567,-470.931 2976.609,-1649.2367 2888.827,-1826.5783"/>
</g>
<!-- 100&#45;&#45;97 -->
<g id="edge142" class="edge">
<title>100&#45;&#45;97</title>
<path fill="none" stroke="transparent" d="M3636.906,-283.7229C3455.5071,-386.6293 2194.7263,-1101.862 2030.5179,-1195.0163"/>
</g>
<!-- 100&#45;&#45;15 -->
<g id="edge143" class="edge">
<title>100&#45;&#45;15</title>
<path fill="none" stroke="transparent" d="M3651.8485,-295.5852C3579.2545,-554.8145 2946.1335,-2815.6578 2880.7901,-3048.996"/>
</g>
<!-- 100&#45;&#45;6 -->
<g id="edge144" class="edge">
<title>100&#45;&#45;6</title>
<path fill="none" stroke="transparent" d="M3637.5421,-285.111C3371.1941,-458.3098 666.3246,-2217.2114 439.6275,-2364.6262"/>
</g>
<!-- 100&#45;&#45;426 -->
<g id="edge145" class="edge">
<title>100&#45;&#45;426</title>
<path fill="none" stroke="transparent" d="M3647.8461,-293.8725C3498.2892,-605.7601 1839.6121,-4064.7826 1689.2789,-4378.289"/>
</g>
<!-- 322&#45;&#45;203 -->
<g id="edge146" class="edge">
<title>322&#45;&#45;203</title>
<path fill="none" stroke="transparent" d="M2463.1052,-29.4452C2267.0198,-67.8004 943.9842,-326.5922 747.3985,-365.0452"/>
</g>
<!-- 322&#45;&#45;111 -->
<g id="edge147" class="edge">
<title>322&#45;&#45;111</title>
<path fill="none" stroke="transparent" d="M2478.8519,-47.8864C2405.1138,-248.4895 1876.0586,-1687.7748 1802.0248,-1889.1826"/>
</g>
<!-- 322&#45;&#45;32 -->
<g id="edge148" class="edge">
<title>322&#45;&#45;32</title>
<path fill="none" stroke="transparent" d="M2485.0569,-49.6524C2463.7363,-279.1114 2302.1348,-2018.3165 2282.8006,-2226.3973"/>
</g>
<!-- 322&#45;&#45;109 -->
<g id="edge149" class="edge">
<title>322&#45;&#45;109</title>
<path fill="none" stroke="transparent" d="M2482.3531,-48.9403C2428.8696,-307.0953 1965.1829,-2545.2251 1911.478,-2804.4486"/>
</g>
<!-- 322&#45;&#45;429 -->
<g id="edge150" class="edge">
<title>322&#45;&#45;429</title>
<path fill="none" stroke="transparent" d="M2492.5992,-49.106C2535.5329,-249.7223 2829.7068,-1624.3081 2872.5684,-1824.5873"/>
</g>
<!-- 322&#45;&#45;97 -->
<g id="edge151" class="edge">
<title>322&#45;&#45;97</title>
<path fill="none" stroke="transparent" d="M2478.1105,-47.7458C2417.3079,-198.9992 2076.1178,-1047.7494 2020.5504,-1185.9797"/>
</g>
<!-- 322&#45;&#45;15 -->
<g id="edge152" class="edge">
<title>322&#45;&#45;15</title>
<path fill="none" stroke="transparent" d="M2490.4985,-49.1981C2525.3691,-322.7648 2841.1188,-2799.8897 2872.7906,-3048.3617"/>
</g>
<!-- 322&#45;&#45;6 -->
<g id="edge153" class="edge">
<title>322&#45;&#45;6</title>
<path fill="none" stroke="transparent" d="M2471.0713,-43.2697C2286.6241,-253.3691 596.3154,-2178.7597 436.6121,-2360.6741"/>
</g>
<!-- 322&#45;&#45;426 -->
<g id="edge154" class="edge">
<title>322&#45;&#45;426</title>
<path fill="none" stroke="transparent" d="M2482.8756,-49.0408C2421.1654,-382.8691 1744.5344,-4043.1792 1682.8808,-4376.7012"/>
</g>
<!-- 203&#45;&#45;111 -->
<g id="edge155" class="edge">
<title>203&#45;&#45;111</title>
<path fill="none" stroke="transparent" d="M737.1208,-390.1735C854.1841,-558.8898 1662.3528,-1723.6547 1779.328,-1892.244"/>
</g>
<!-- 203&#45;&#45;32 -->
<g id="edge156" class="edge">
<title>203&#45;&#45;32</title>
<path fill="none" stroke="transparent" d="M738.924,-389.0061C893.7016,-575.4767 2127.4438,-2061.8458 2267.9033,-2231.0665"/>
</g>
<!-- 203&#45;&#45;109 -->
<g id="edge157" class="edge">
<title>203&#45;&#45;109</title>
<path fill="none" stroke="transparent" d="M733.7725,-392.2085C845.1161,-623.5753 1784.1299,-2574.8037 1895.6095,-2806.4532"/>
</g>
<!-- 203&#45;&#45;429 -->
<g id="edge158" class="edge">
<title>203&#45;&#45;429</title>
<path fill="none" stroke="transparent" d="M743.6329,-383.983C950.6891,-526.1114 2650.484,-1692.8921 2857.2071,-1834.7919"/>
</g>
<!-- 203&#45;&#45;97 -->
<g id="edge159" class="edge">
<title>203&#45;&#45;97</title>
<path fill="none" stroke="transparent" d="M743.7811,-383.2754C897.5413,-482.8328 1856.3255,-1103.6311 1995.9476,-1194.0343"/>
</g>
<!-- 203&#45;&#45;15 -->
<g id="edge160" class="edge">
<title>203&#45;&#45;15</title>
<path fill="none" stroke="transparent" d="M738.4823,-389.2332C922.8846,-620.4361 2695.1918,-2842.5483 2862.6627,-3052.5227"/>
</g>
<!-- 203&#45;&#45;6 -->
<g id="edge161" class="edge">
<title>203&#45;&#45;6</title>
<path fill="none" stroke="transparent" d="M719.3311,-394.441C687.2482,-609.9128 454.7713,-2171.2511 427.1877,-2356.5053"/>
</g>
<!-- 203&#45;&#45;426 -->
<g id="edge162" class="edge">
<title>203&#45;&#45;426</title>
<path fill="none" stroke="transparent" d="M728.7287,-394.0011C804.0127,-711.6545 1596.8833,-4057.0915 1672.5911,-4376.5329"/>
</g>
<!-- 111&#45;&#45;32 -->
<g id="edge163" class="edge">
<title>111&#45;&#45;32</title>
<path fill="none" stroke="transparent" d="M1814.0642,-1926.7125C1895.0697,-1982.242 2190.4674,-2184.7381 2264.1652,-2235.2582"/>
</g>
<!-- 111&#45;&#45;109 -->
<g id="edge164" class="edge">
<title>111&#45;&#45;109</title>
<path fill="none" stroke="transparent" d="M1796.5097,-1937.552C1812.6548,-2068.4941 1887.3772,-2674.5204 1903.3871,-2804.3664"/>
</g>
<!-- 111&#45;&#45;429 -->
<g id="edge165" class="edge">
<title>111&#45;&#45;429</title>
<path fill="none" stroke="transparent" d="M1818.1145,-1911.1179C1963.4421,-1902.5862 2706.1355,-1858.9854 2852.652,-1850.3839"/>
</g>
<!-- 111&#45;&#45;97 -->
<g id="edge166" class="edge">
<title>111&#45;&#45;97</title>
<path fill="none" stroke="transparent" d="M1800.8571,-1888.62C1834.9264,-1778.7832 1975.9012,-1324.2922 2006.8679,-1224.4583"/>
</g>
<!-- 111&#45;&#45;15 -->
<g id="edge167" class="edge">
<title>111&#45;&#45;15</title>
<path fill="none" stroke="transparent" d="M1810.4235,-1930.7229C1938.12,-2067.1465 2745.451,-2929.653 2861.4687,-3053.5997"/>
</g>
<!-- 111&#45;&#45;6 -->
<g id="edge168" class="edge">
<title>111&#45;&#45;6</title>
<path fill="none" stroke="transparent" d="M1769.9571,-1920.4868C1602.1922,-1977.0924 587.7001,-2319.393 441.9504,-2368.5705"/>
</g>
<!-- 111&#45;&#45;426 -->
<g id="edge169" class="edge">
<title>111&#45;&#45;426</title>
<path fill="none" stroke="transparent" d="M1792.2719,-1937.5996C1780.9893,-2181.6536 1690.7695,-4133.2027 1679.5361,-4376.193"/>
</g>
<!-- 32&#45;&#45;109 -->
<g id="edge170" class="edge">
<title>32&#45;&#45;109</title>
<path fill="none" stroke="transparent" d="M2269.9054,-2263.845C2215.8999,-2347.7974 1979.1346,-2715.8525 1919.8888,-2807.951"/>
</g>
<!-- 32&#45;&#45;429 -->
<g id="edge171" class="edge">
<title>32&#45;&#45;429</title>
<path fill="none" stroke="transparent" d="M2297.8121,-2235.4719C2382.8973,-2178.7599 2763.9418,-1924.7815 2857.15,-1862.6553"/>
</g>
<!-- 32&#45;&#45;97 -->
<g id="edge172" class="edge">
<title>32&#45;&#45;97</title>
<path fill="none" stroke="transparent" d="M2275.7961,-2226.8576C2242.0364,-2095.6375 2051.5493,-1355.2359 2017.9598,-1224.6774"/>
</g>
<!-- 32&#45;&#45;15 -->
<g id="edge173" class="edge">
<title>32&#45;&#45;15</title>
<path fill="none" stroke="transparent" d="M2292.7848,-2263.1508C2368.8741,-2368.329 2787.2719,-2946.68 2863.446,-3051.9753"/>
</g>
<!-- 32&#45;&#45;6 -->
<g id="edge174" class="edge">
<title>32&#45;&#45;6</title>
<path fill="none" stroke="transparent" d="M2260.6951,-2248.128C2071.9893,-2261.1106 621.7797,-2360.8819 442.6454,-2373.2059"/>
</g>
<!-- 32&#45;&#45;426 -->
<g id="edge175" class="edge">
<title>32&#45;&#45;426</title>
<path fill="none" stroke="transparent" d="M2275.4246,-2266.3521C2219.118,-2467.6712 1747.0826,-4155.3915 1685.0961,-4377.019"/>
</g>
<!-- 109&#45;&#45;429 -->
<g id="edge176" class="edge">
<title>109&#45;&#45;429</title>
<path fill="none" stroke="transparent" d="M1924.1012,-2811.0544C2044.3105,-2689.7771 2740.0983,-1987.8075 2860.1377,-1866.7016"/>
</g>
<!-- 109&#45;&#45;97 -->
<g id="edge177" class="edge">
<title>109&#45;&#45;97</title>
<path fill="none" stroke="transparent" d="M1908.0422,-2804.043C1920.4847,-2614.3021 2000.2566,-1397.8184 2011.5671,-1225.3388"/>
</g>
<!-- 109&#45;&#45;15 -->
<g id="edge178" class="edge">
<title>109&#45;&#45;15</title>
<path fill="none" stroke="transparent" d="M1930.8481,-2834.9413C2067.1823,-2868.644 2732.1185,-3033.0206 2855.5958,-3063.545"/>
</g>
<!-- 109&#45;&#45;6 -->
<g id="edge179" class="edge">
<title>109&#45;&#45;6</title>
<path fill="none" stroke="transparent" d="M1882.5349,-2821.5782C1705.1438,-2767.1784 595.0931,-2426.7637 442.013,-2379.8192"/>
</g>
<!-- 109&#45;&#45;426 -->
<g id="edge180" class="edge">
<title>109&#45;&#45;426</title>
<path fill="none" stroke="transparent" d="M1902.8305,-2853.5945C1876.1441,-3037.583 1708.6218,-4192.5614 1681.9632,-4376.3585"/>
</g>
<!-- 429&#45;&#45;97 -->
<g id="edge181" class="edge">
<title>429&#45;&#45;97</title>
<path fill="none" stroke="transparent" d="M2857.668,-1833.9406C2739.4779,-1745.9481 2136.6382,-1297.1338 2029.2694,-1217.1978"/>
</g>
<!-- 429&#45;&#45;15 -->
<g id="edge182" class="edge">
<title>429&#45;&#45;15</title>
<path fill="none" stroke="transparent" d="M2877.7239,-1873.8221C2877.4079,-2032.7572 2875.6776,-2902.8937 2875.3891,-3047.9284"/>
</g>
<!-- 429&#45;&#45;6 -->
<g id="edge183" class="edge">
<title>429&#45;&#45;6</title>
<path fill="none" stroke="transparent" d="M2853.4927,-1854.1106C2612.2654,-1905.787 650.5106,-2326.0399 442.3743,-2370.6274"/>
</g>
<!-- 429&#45;&#45;426 -->
<g id="edge184" class="edge">
<title>429&#45;&#45;426</title>
<path fill="none" stroke="transparent" d="M2867.2223,-1871.3602C2755.9939,-2108.0358 1800.5896,-4140.9764 1689.0101,-4378.399"/>
</g>
<!-- 97&#45;&#45;15 -->
<g id="edge185" class="edge">
<title>97&#45;&#45;15</title>
<path fill="none" stroke="transparent" d="M2021.4361,-1223.4537C2105.4528,-1404.9814 2783.147,-2869.2164 2866.8738,-3050.1178"/>
</g>
<!-- 97&#45;&#45;6 -->
<g id="edge186" class="edge">
<title>97&#45;&#45;6</title>
<path fill="none" stroke="transparent" d="M1996.6619,-1216.9661C1839.429,-1332.7282 590.0891,-2252.5501 439.3783,-2363.5104"/>
</g>
<!-- 97&#45;&#45;426 -->
<g id="edge187" class="edge">
<title>97&#45;&#45;426</title>
<path fill="none" stroke="transparent" d="M2010.764,-1225.4198C1983.8188,-1482.8596 1710.5211,-4094.0049 1680.9752,-4376.2927"/>
</g>
<!-- 15&#45;&#45;6 -->
<g id="edge188" class="edge">
<title>15&#45;&#45;6</title>
<path fill="none" stroke="transparent" d="M2855.6205,-3062.8419C2635.7957,-3000.5966 648.9407,-2438.0013 441.93,-2379.3844"/>
</g>
<!-- 15&#45;&#45;426 -->
<g id="edge189" class="edge">
<title>15&#45;&#45;426</title>
<path fill="none" stroke="transparent" d="M2861.492,-3083.8542C2738.1053,-3221.2202 1829.1739,-4233.1302 1694.9341,-4382.5789"/>
</g>
<!-- 6&#45;&#45;426 -->
<g id="edge190" class="edge">
<title>6&#45;&#45;426</title>
<path fill="none" stroke="transparent" d="M434.065,-2389.8878C542.4446,-2565.0538 1539.1914,-4176.0225 1665.2948,-4379.8342"/>
</g>
</g>
</svg>
