<?xml version="1.0" encoding="UTF-8" standalone="no"?>
<!DOCTYPE svg PUBLIC "-//W3C//DTD SVG 1.1//EN"
 "http://www.w3.org/Graphics/SVG/1.1/DTD/svg11.dtd">
<!-- Generated by graphviz version 2.40.1 (20161225.0304)
 -->
<!-- Pages: 1 -->
<svg width="720pt" height="585pt"
 viewBox="0.00 0.00 720.00 585.32" xmlns="http://www.w3.org/2000/svg" xmlns:xlink="http://www.w3.org/1999/xlink">
<g id="graph0" class="graph" transform="scale(.1587 .1587) rotate(0) translate(4 3684.64)">
<polygon fill="#ffffff" stroke="transparent" points="-4,4 -4,-3684.64 4533.3791,-3684.64 4533.3791,4 -4,4"/>
<!-- 136 -->
<g id="node1" class="node">
<title>136</title>
<ellipse fill="#00cd66" stroke="#000000" cx="844.0984" cy="-148.6675" rx="24.8972" ry="24.8972"/>
<text text-anchor="middle" x="844.0984" y="-144.9675" font-family="Times,serif" font-size="14.00" fill="#000000">136</text>
</g>
<!-- 133 -->
<g id="node2" class="node">
<title>133</title>
<ellipse fill="#00cd66" stroke="#000000" cx="872.8666" cy="-2706.5888" rx="24.8972" ry="24.8972"/>
<text text-anchor="middle" x="872.8666" y="-2702.8888" font-family="Times,serif" font-size="14.00" fill="#000000">133</text>
</g>
<!-- 136&#45;&#45;133 -->
<g id="edge1" class="edge">
<title>136&#45;&#45;133</title>
<path fill="none" stroke="transparent" d="M844.3785,-173.5724C847.162,-421.065 869.8115,-2434.9501 872.588,-2681.8155"/>
</g>
<!-- 127 -->
<g id="node3" class="node">
<title>127</title>
<ellipse fill="#00cd66" stroke="#000000" cx="1685.786" cy="-1536.51" rx="24.8972" ry="24.8972"/>
<text text-anchor="middle" x="1685.786" y="-1532.81" font-family="Times,serif" font-size="14.00" fill="#000000">127</text>
</g>
<!-- 136&#45;&#45;127 -->
<g id="edge2" class="edge">
<title>136&#45;&#45;127</title>
<path fill="none" stroke="transparent" d="M856.9825,-169.9119C954.5009,-330.708 1575.2803,-1354.2992 1672.8794,-1515.2284"/>
</g>
<!-- 124 -->
<g id="node4" class="node">
<title>124</title>
<ellipse fill="#00cd66" stroke="#000000" cx="1870.1639" cy="-3655.9422" rx="24.8972" ry="24.8972"/>
<text text-anchor="middle" x="1870.1639" y="-3652.2422" font-family="Times,serif" font-size="14.00" fill="#000000">124</text>
</g>
<!-- 136&#45;&#45;124 -->
<g id="edge3" class="edge">
<title>136&#45;&#45;124</title>
<path fill="none" stroke="transparent" d="M851.0595,-172.462C936.3382,-463.9596 1777.9502,-3340.7395 1863.2065,-3632.1607"/>
</g>
<!-- 132 -->
<g id="node5" class="node">
<title>132</title>
<ellipse fill="#00cd66" stroke="#000000" cx="4504.6813" cy="-2362.0438" rx="24.8972" ry="24.8972"/>
<text text-anchor="middle" x="4504.6813" y="-2358.3438" font-family="Times,serif" font-size="14.00" fill="#000000">132</text>
</g>
<!-- 136&#45;&#45;132 -->
<g id="edge4" class="edge">
<title>136&#45;&#45;132</title>
<path fill="none" stroke="transparent" d="M865.5956,-161.6659C1151.5296,-334.5562 4198.3193,-2176.8016 4483.3276,-2349.1323"/>
</g>
<!-- 120 -->
<g id="node6" class="node">
<title>120</title>
<ellipse fill="#00cd66" stroke="#000000" cx="628.4898" cy="-2108.3199" rx="24.8972" ry="24.8972"/>
<text text-anchor="middle" x="628.4898" y="-2104.6199" font-family="Times,serif" font-size="14.00" fill="#000000">120</text>
</g>
<!-- 136&#45;&#45;120 -->
<g id="edge5" class="edge">
<title>136&#45;&#45;120</title>
<path fill="none" stroke="transparent" d="M841.3723,-173.4448C818.1808,-384.2312 654.2832,-1873.8853 631.1913,-2083.766"/>
</g>
<!-- 89 -->
<g id="node7" class="node">
<title>89</title>
<ellipse fill="#00cd66" stroke="#000000" cx="1161.4732" cy="-1051.7605" rx="20.2975" ry="20.2975"/>
<text text-anchor="middle" x="1161.4732" y="-1048.0605" font-family="Times,serif" font-size="14.00" fill="#000000">89</text>
</g>
<!-- 136&#45;&#45;89 -->
<g id="edge6" class="edge">
<title>136&#45;&#45;89</title>
<path fill="none" stroke="transparent" d="M852.4243,-172.3589C897.707,-301.2112 1113.8173,-916.1552 1154.7674,-1032.6791"/>
</g>
<!-- 113 -->
<g id="node8" class="node">
<title>113</title>
<ellipse fill="#00cd66" stroke="#000000" cx="2694.1036" cy="-2228.0954" rx="24.8972" ry="24.8972"/>
<text text-anchor="middle" x="2694.1036" y="-2224.3954" font-family="Times,serif" font-size="14.00" fill="#000000">113</text>
</g>
<!-- 136&#45;&#45;113 -->
<g id="edge7" class="edge">
<title>136&#45;&#45;113</title>
<path fill="none" stroke="transparent" d="M860.6569,-167.2795C1033.4724,-361.5261 2504.2766,-2014.7277 2677.4696,-2209.3986"/>
</g>
<!-- 117 -->
<g id="node9" class="node">
<title>117</title>
<ellipse fill="#00cd66" stroke="#000000" cx="2400.0917" cy="-1533.8889" rx="24.8972" ry="24.8972"/>
<text text-anchor="middle" x="2400.0917" y="-1530.1889" font-family="Times,serif" font-size="14.00" fill="#000000">117</text>
</g>
<!-- 136&#45;&#45;117 -->
<g id="edge8" class="edge">
<title>136&#45;&#45;117</title>
<path fill="none" stroke="transparent" d="M862.6569,-165.1892C1026.1252,-310.7167 2218.1904,-1371.9515 2381.5574,-1517.3887"/>
</g>
<!-- 435 -->
<g id="node10" class="node">
<title>435</title>
<ellipse fill="#00cd66" stroke="#000000" cx="2190.7828" cy="-596.4476" rx="24.8972" ry="24.8972"/>
<text text-anchor="middle" x="2190.7828" y="-592.7476" font-family="Times,serif" font-size="14.00" fill="#000000">435</text>
</g>
<!-- 136&#45;&#45;435 -->
<g id="edge9" class="edge">
<title>136&#45;&#45;435</title>
<path fill="none" stroke="transparent" d="M867.7576,-156.5343C1032.2384,-211.2251 2003.4708,-534.1653 2167.3172,-588.6452"/>
</g>
<!-- 323 -->
<g id="node11" class="node">
<title>323</title>
<ellipse fill="#00cd66" stroke="#000000" cx="3264.4981" cy="-1460.6074" rx="24.8972" ry="24.8972"/>
<text text-anchor="middle" x="3264.4981" y="-1456.9074" font-family="Times,serif" font-size="14.00" fill="#000000">323</text>
</g>
<!-- 136&#45;&#45;323 -->
<g id="edge10" class="edge">
<title>136&#45;&#45;323</title>
<path fill="none" stroke="transparent" d="M866.1365,-160.6129C1093.982,-284.1131 3016.3931,-1326.1259 3242.7576,-1448.8233"/>
</g>
<!-- 340 -->
<g id="node12" class="node">
<title>340</title>
<ellipse fill="#00cd66" stroke="#000000" cx="24.6978" cy="-1529.5466" rx="24.8972" ry="24.8972"/>
<text text-anchor="middle" x="24.6978" y="-1525.8466" font-family="Times,serif" font-size="14.00" fill="#000000">340</text>
</g>
<!-- 136&#45;&#45;340 -->
<g id="edge11" class="edge">
<title>136&#45;&#45;340</title>
<path fill="none" stroke="transparent" d="M831.392,-170.0807C735.9742,-330.8817 132.8085,-1347.3551 37.4012,-1508.1384"/>
</g>
<!-- 374 -->
<g id="node13" class="node">
<title>374</title>
<ellipse fill="#00cd66" stroke="#000000" cx="2962.2778" cy="-566.6955" rx="24.8972" ry="24.8972"/>
<text text-anchor="middle" x="2962.2778" y="-562.9955" font-family="Times,serif" font-size="14.00" fill="#000000">374</text>
</g>
<!-- 136&#45;&#45;374 -->
<g id="edge12" class="edge">
<title>136&#45;&#45;374</title>
<path fill="none" stroke="transparent" d="M868.6191,-153.5067C1088.5807,-196.9167 2719.274,-518.7381 2938.0367,-561.9115"/>
</g>
<!-- 378 -->
<g id="node14" class="node">
<title>378</title>
<ellipse fill="#00cd66" stroke="#000000" cx="2956.5355" cy="-2894.5261" rx="24.8972" ry="24.8972"/>
<text text-anchor="middle" x="2956.5355" y="-2890.8261" font-family="Times,serif" font-size="14.00" fill="#000000">378</text>
</g>
<!-- 136&#45;&#45;378 -->
<g id="edge13" class="edge">
<title>136&#45;&#45;378</title>
<path fill="none" stroke="transparent" d="M859.2962,-168.4224C1039.3513,-402.4676 2761.9295,-2641.5668 2941.4339,-2874.8963"/>
</g>
<!-- 409 -->
<g id="node15" class="node">
<title>409</title>
<ellipse fill="#00cd66" stroke="#000000" cx="1786.4538" cy="-2428.5771" rx="24.8972" ry="24.8972"/>
<text text-anchor="middle" x="1786.4538" y="-2424.8771" font-family="Times,serif" font-size="14.00" fill="#000000">409</text>
</g>
<!-- 136&#45;&#45;409 -->
<g id="edge14" class="edge">
<title>136&#45;&#45;409</title>
<path fill="none" stroke="transparent" d="M853.5781,-171.6025C945.9519,-395.0891 1684.2714,-2181.3598 1776.9159,-2405.5014"/>
</g>
<!-- 324 -->
<g id="node16" class="node">
<title>324</title>
<ellipse fill="#00cd66" stroke="#000000" cx="1868.7579" cy="-24.6978" rx="24.8972" ry="24.8972"/>
<text text-anchor="middle" x="1868.7579" y="-20.9978" font-family="Times,serif" font-size="14.00" fill="#000000">324</text>
</g>
<!-- 136&#45;&#45;324 -->
<g id="edge15" class="edge">
<title>136&#45;&#45;324</title>
<path fill="none" stroke="transparent" d="M868.6674,-145.695C1008.6675,-128.7569 1704.3679,-44.5867 1844.2379,-27.6644"/>
</g>
<!-- 133&#45;&#45;127 -->
<g id="edge16" class="edge">
<title>133&#45;&#45;127</title>
<path fill="none" stroke="transparent" d="M886.9763,-2686.2799C985.7523,-2544.1064 1572.6011,-1699.4232 1671.6065,-1556.9193"/>
</g>
<!-- 133&#45;&#45;124 -->
<g id="edge17" class="edge">
<title>133&#45;&#45;124</title>
<path fill="none" stroke="transparent" d="M891.0279,-2723.8771C1014.4469,-2841.3628 1728.8127,-3521.3863 1852.0572,-3638.706"/>
</g>
<!-- 133&#45;&#45;132 -->
<g id="edge18" class="edge">
<title>133&#45;&#45;132</title>
<path fill="none" stroke="transparent" d="M897.5059,-2704.2513C1199.3544,-2675.6154 4178.286,-2393.0084 4480.0553,-2364.38"/>
</g>
<!-- 133&#45;&#45;120 -->
<g id="edge19" class="edge">
<title>133&#45;&#45;120</title>
<path fill="none" stroke="transparent" d="M863.4365,-2683.5026C824.5342,-2588.2644 676.7416,-2226.4471 637.8918,-2131.3374"/>
</g>
<!-- 133&#45;&#45;89 -->
<g id="edge20" class="edge">
<title>133&#45;&#45;89</title>
<path fill="none" stroke="transparent" d="M877.1138,-2682.2358C910.318,-2491.8477 1127.7861,-1244.9171 1157.9933,-1071.7135"/>
</g>
<!-- 133&#45;&#45;113 -->
<g id="edge21" class="edge">
<title>133&#45;&#45;113</title>
<path fill="none" stroke="transparent" d="M896.8963,-2700.2755C1096.0683,-2647.9471 2471.0898,-2286.6878 2670.1119,-2234.3987"/>
</g>
<!-- 133&#45;&#45;117 -->
<g id="edge22" class="edge">
<title>133&#45;&#45;117</title>
<path fill="none" stroke="transparent" d="M892.7349,-2691.3327C1058.9005,-2563.7402 2215.3233,-1675.7658 2380.4772,-1548.9502"/>
</g>
<!-- 133&#45;&#45;435 -->
<g id="edge23" class="edge">
<title>133&#45;&#45;435</title>
<path fill="none" stroke="transparent" d="M886.1243,-2685.3617C1015.3795,-2478.4087 2048.9537,-823.5329 2177.6456,-617.4819"/>
</g>
<!-- 133&#45;&#45;323 -->
<g id="edge24" class="edge">
<title>133&#45;&#45;323</title>
<path fill="none" stroke="transparent" d="M895.0156,-2695.0497C1121.6404,-2576.9838 3015.6509,-1590.2507 3242.3367,-1472.153"/>
</g>
<!-- 133&#45;&#45;340 -->
<g id="edge25" class="edge">
<title>133&#45;&#45;340</title>
<path fill="none" stroke="transparent" d="M858.145,-2686.1591C754.976,-2542.9868 141.4831,-1691.6149 39.1632,-1549.6208"/>
</g>
<!-- 133&#45;&#45;374 -->
<g id="edge26" class="edge">
<title>133&#45;&#45;374</title>
<path fill="none" stroke="transparent" d="M890.3021,-2688.7321C1079.9035,-2494.5498 2755.6873,-778.2774 2944.914,-584.4789"/>
</g>
<!-- 133&#45;&#45;378 -->
<g id="edge27" class="edge">
<title>133&#45;&#45;378</title>
<path fill="none" stroke="transparent" d="M897.7187,-2708.8304C1116.6232,-2728.5746 2712.947,-2872.5556 2931.7157,-2892.2875"/>
</g>
<!-- 133&#45;&#45;409 -->
<g id="edge28" class="edge">
<title>133&#45;&#45;409</title>
<path fill="none" stroke="transparent" d="M896.8332,-2699.2956C1025.6344,-2660.1004 1634.5624,-2474.7988 1762.7381,-2435.7939"/>
</g>
<!-- 133&#45;&#45;324 -->
<g id="edge29" class="edge">
<title>133&#45;&#45;324</title>
<path fill="none" stroke="transparent" d="M881.4761,-2683.4037C973.1579,-2436.5087 1768.0127,-296.0002 1860.0739,-48.0832"/>
</g>
<!-- 127&#45;&#45;124 -->
<g id="edge30" class="edge">
<title>127&#45;&#45;124</title>
<path fill="none" stroke="transparent" d="M1687.9527,-1561.4156C1707.2063,-1782.7371 1848.736,-3409.6277 1867.9958,-3631.0199"/>
</g>
<!-- 127&#45;&#45;132 -->
<g id="edge31" class="edge">
<title>127&#45;&#45;132</title>
<path fill="none" stroke="transparent" d="M1709.7304,-1543.5223C1967.4537,-1618.9984 4223.9051,-2279.8165 4480.8812,-2355.0738"/>
</g>
<!-- 127&#45;&#45;120 -->
<g id="edge32" class="edge">
<title>127&#45;&#45;120</title>
<path fill="none" stroke="transparent" d="M1663.7029,-1548.453C1526.1058,-1622.8687 787.6942,-2022.2185 650.4514,-2096.4425"/>
</g>
<!-- 127&#45;&#45;89 -->
<g id="edge33" class="edge">
<title>127&#45;&#45;89</title>
<path fill="none" stroke="transparent" d="M1667.4329,-1519.5417C1585.1457,-1443.4637 1250.9687,-1134.5029 1176.3127,-1065.4802"/>
</g>
<!-- 127&#45;&#45;113 -->
<g id="edge34" class="edge">
<title>127&#45;&#45;113</title>
<path fill="none" stroke="transparent" d="M1706.3845,-1550.638C1836.5337,-1639.9049 2543.4854,-2124.7893 2673.5379,-2213.9898"/>
</g>
<!-- 127&#45;&#45;117 -->
<g id="edge35" class="edge">
<title>127&#45;&#45;117</title>
<path fill="none" stroke="transparent" d="M1710.7897,-1536.4182C1821.2899,-1536.0128 2265.2001,-1534.3839 2375.291,-1533.9799"/>
</g>
<!-- 127&#45;&#45;435 -->
<g id="edge36" class="edge">
<title>127&#45;&#45;435</title>
<path fill="none" stroke="transparent" d="M1697.5256,-1514.6566C1765.7218,-1387.7077 2110.263,-746.3369 2178.885,-618.5955"/>
</g>
<!-- 127&#45;&#45;323 -->
<g id="edge37" class="edge">
<title>127&#45;&#45;323</title>
<path fill="none" stroke="transparent" d="M1710.5838,-1535.3177C1895.3465,-1526.4346 3055.1844,-1470.671 3239.7549,-1461.797"/>
</g>
<!-- 127&#45;&#45;340 -->
<g id="edge38" class="edge">
<title>127&#45;&#45;340</title>
<path fill="none" stroke="transparent" d="M1661.0156,-1536.4061C1470.5249,-1535.6076 240.621,-1530.4518 49.6112,-1529.651"/>
</g>
<!-- 127&#45;&#45;374 -->
<g id="edge39" class="edge">
<title>127&#45;&#45;374</title>
<path fill="none" stroke="transparent" d="M1705.5805,-1521.4711C1854.1469,-1408.5978 2792.8623,-695.4089 2942.2508,-581.9111"/>
</g>
<!-- 127&#45;&#45;378 -->
<g id="edge40" class="edge">
<title>127&#45;&#45;378</title>
<path fill="none" stroke="transparent" d="M1702.7888,-1554.6804C1842.5386,-1704.0273 2800.078,-2727.3241 2939.5929,-2876.42"/>
</g>
<!-- 127&#45;&#45;409 -->
<g id="edge41" class="edge">
<title>127&#45;&#45;409</title>
<path fill="none" stroke="transparent" d="M1688.5835,-1561.3C1703.0479,-1689.4764 1769.2377,-2276.0165 1783.6698,-2403.9068"/>
</g>
<!-- 127&#45;&#45;324 -->
<g id="edge42" class="edge">
<title>127&#45;&#45;324</title>
<path fill="none" stroke="transparent" d="M1688.7716,-1511.8417C1710.4928,-1332.3689 1844.0037,-229.2304 1865.7616,-49.4545"/>
</g>
<!-- 124&#45;&#45;132 -->
<g id="edge43" class="edge">
<title>124&#45;&#45;132</title>
<path fill="none" stroke="transparent" d="M1892.5421,-3644.9516C2133.4083,-3526.6542 4242.2701,-2490.9226 4482.4379,-2372.9682"/>
</g>
<!-- 124&#45;&#45;120 -->
<g id="edge44" class="edge">
<title>124&#45;&#45;120</title>
<path fill="none" stroke="transparent" d="M1854.6893,-3636.6547C1721.9742,-3471.2386 777.1823,-2293.6502 644.0635,-2127.731"/>
</g>
<!-- 124&#45;&#45;89 -->
<g id="edge45" class="edge">
<title>124&#45;&#45;89</title>
<path fill="none" stroke="transparent" d="M1863.6007,-3631.8248C1796.0284,-3383.521 1228.1954,-1296.9406 1166.8417,-1071.4879"/>
</g>
<!-- 124&#45;&#45;113 -->
<g id="edge46" class="edge">
<title>124&#45;&#45;113</title>
<path fill="none" stroke="transparent" d="M1882.613,-3634.3686C1977.6393,-3469.6927 2587.109,-2413.5118 2681.7586,-2249.4886"/>
</g>
<!-- 124&#45;&#45;117 -->
<g id="edge47" class="edge">
<title>124&#45;&#45;117</title>
<path fill="none" stroke="transparent" d="M1876.2065,-3631.745C1930.899,-3412.7335 2339.6632,-1775.8701 2394.1066,-1557.8558"/>
</g>
<!-- 124&#45;&#45;435 -->
<g id="edge48" class="edge">
<title>124&#45;&#45;435</title>
<path fill="none" stroke="transparent" d="M1872.7447,-3631.315C1901.3985,-3357.8866 2159.5516,-894.4699 2188.2025,-621.0696"/>
</g>
<!-- 124&#45;&#45;323 -->
<g id="edge49" class="edge">
<title>124&#45;&#45;323</title>
<path fill="none" stroke="transparent" d="M1883.517,-3634.9182C2017.501,-3423.9647 3117.4214,-1692.1751 3251.1899,-1481.5609"/>
</g>
<!-- 124&#45;&#45;340 -->
<g id="edge50" class="edge">
<title>124&#45;&#45;340</title>
<path fill="none" stroke="transparent" d="M1853.9291,-3637.236C1682.7843,-3440.0384 212.7246,-1746.1962 41.0396,-1548.3761"/>
</g>
<!-- 124&#45;&#45;374 -->
<g id="edge51" class="edge">
<title>124&#45;&#45;374</title>
<path fill="none" stroke="transparent" d="M1878.4816,-3632.414C1973.8145,-3362.7473 2858.3137,-860.7775 2953.912,-590.36"/>
</g>
<!-- 124&#45;&#45;378 -->
<g id="edge52" class="edge">
<title>124&#45;&#45;378</title>
<path fill="none" stroke="transparent" d="M1890.4188,-3641.746C2025.9214,-3546.7749 2799.5529,-3004.5521 2935.9837,-2908.9305"/>
</g>
<!-- 124&#45;&#45;409 -->
<g id="edge53" class="edge">
<title>124&#45;&#45;409</title>
<path fill="none" stroke="transparent" d="M1868.4728,-3631.1478C1857.7127,-3473.3823 1798.9075,-2611.1753 1788.1455,-2453.3811"/>
</g>
<!-- 124&#45;&#45;324 -->
<g id="edge54" class="edge">
<title>124&#45;&#45;324</title>
<path fill="none" stroke="transparent" d="M1870.1542,-3630.815C1870.0363,-3326.4348 1868.8853,-353.7759 1868.7676,-49.7623"/>
</g>
<!-- 132&#45;&#45;120 -->
<g id="edge55" class="edge">
<title>132&#45;&#45;120</title>
<path fill="none" stroke="transparent" d="M4479.9287,-2360.4236C4166.0858,-2339.8803 968.0457,-2130.5462 653.3773,-2109.949"/>
</g>
<!-- 132&#45;&#45;89 -->
<g id="edge56" class="edge">
<title>132&#45;&#45;89</title>
<path fill="none" stroke="transparent" d="M4481.5472,-2352.977C4199.8687,-2242.5804 1436.2117,-1159.4371 1180.4238,-1059.1877"/>
</g>
<!-- 132&#45;&#45;113 -->
<g id="edge57" class="edge">
<title>132&#45;&#45;113</title>
<path fill="none" stroke="transparent" d="M4479.7754,-2360.2012C4278.4494,-2345.3069 2919.4437,-2244.7663 2718.8252,-2229.9244"/>
</g>
<!-- 132&#45;&#45;117 -->
<g id="edge58" class="edge">
<title>132&#45;&#45;117</title>
<path fill="none" stroke="transparent" d="M4481.4057,-2352.8849C4266.894,-2268.4746 2637.1597,-1627.175 2423.2342,-1542.9955"/>
</g>
<!-- 132&#45;&#45;435 -->
<g id="edge59" class="edge">
<title>132&#45;&#45;435</title>
<path fill="none" stroke="transparent" d="M4485.0265,-2347.0464C4273.5831,-2185.7067 2423.1767,-773.7734 2210.6482,-611.6057"/>
</g>
<!-- 132&#45;&#45;323 -->
<g id="edge60" class="edge">
<title>132&#45;&#45;323</title>
<path fill="none" stroke="transparent" d="M4484.6986,-2347.5193C4338.2671,-2241.0844 3432.4525,-1582.6863 3284.8276,-1475.3841"/>
</g>
<!-- 132&#45;&#45;340 -->
<g id="edge61" class="edge">
<title>132&#45;&#45;340</title>
<path fill="none" stroke="transparent" d="M4480.3071,-2357.5144C4141.8698,-2294.624 387.521,-1596.9686 49.0735,-1534.0762"/>
</g>
<!-- 132&#45;&#45;374 -->
<g id="edge62" class="edge">
<title>132&#45;&#45;374</title>
<path fill="none" stroke="transparent" d="M4488.403,-2343.0959C4334.1848,-2163.587 3132.7854,-765.1653 2978.5581,-585.6457"/>
</g>
<!-- 132&#45;&#45;378 -->
<g id="edge63" class="edge">
<title>132&#45;&#45;378</title>
<path fill="none" stroke="transparent" d="M4481.29,-2370.0892C4302.8344,-2431.4687 3158.7864,-2824.9622 2980.0145,-2886.4505"/>
</g>
<!-- 132&#45;&#45;409 -->
<g id="edge64" class="edge">
<title>132&#45;&#45;409</title>
<path fill="none" stroke="transparent" d="M4479.9314,-2362.6496C4224.1825,-2368.9095 2067.3282,-2421.7022 1811.2667,-2427.9697"/>
</g>
<!-- 132&#45;&#45;324 -->
<g id="edge65" class="edge">
<title>132&#45;&#45;324</title>
<path fill="none" stroke="transparent" d="M4486.081,-2345.5504C4263.2655,-2147.9738 2109.6154,-238.2728 1887.2758,-41.1182"/>
</g>
<!-- 120&#45;&#45;89 -->
<g id="edge66" class="edge">
<title>120&#45;&#45;89</title>
<path fill="none" stroke="transparent" d="M639.6219,-2086.2521C709.6573,-1947.4174 1088.4667,-1196.4848 1152.3291,-1069.8871"/>
</g>
<!-- 120&#45;&#45;113 -->
<g id="edge67" class="edge">
<title>120&#45;&#45;113</title>
<path fill="none" stroke="transparent" d="M653.4928,-2109.7697C871.8017,-2122.4284 2451.2117,-2214.0112 2669.182,-2226.6503"/>
</g>
<!-- 120&#45;&#45;117 -->
<g id="edge68" class="edge">
<title>120&#45;&#45;117</title>
<path fill="none" stroke="transparent" d="M652.194,-2100.6339C847.0247,-2037.4613 2181.9681,-1604.6142 2376.4713,-1541.5477"/>
</g>
<!-- 120&#45;&#45;435 -->
<g id="edge69" class="edge">
<title>120&#45;&#45;435</title>
<path fill="none" stroke="transparent" d="M646.3042,-2091.0804C807.4599,-1935.1257 2011.371,-770.0691 2172.8851,-613.7676"/>
</g>
<!-- 120&#45;&#45;323 -->
<g id="edge70" class="edge">
<title>120&#45;&#45;323</title>
<path fill="none" stroke="transparent" d="M652.491,-2102.4224C900.5042,-2041.4813 2992.1194,-1527.5355 3240.4357,-1466.52"/>
</g>
<!-- 120&#45;&#45;340 -->
<g id="edge71" class="edge">
<title>120&#45;&#45;340</title>
<path fill="none" stroke="transparent" d="M610.4195,-2090.9984C521.5328,-2005.7947 131.425,-1631.8514 42.6976,-1546.8006"/>
</g>
<!-- 120&#45;&#45;374 -->
<g id="edge72" class="edge">
<title>120&#45;&#45;374</title>
<path fill="none" stroke="transparent" d="M649.3784,-2094.5216C867.4989,-1950.4383 2724.7366,-723.6075 2941.6328,-580.333"/>
</g>
<!-- 120&#45;&#45;378 -->
<g id="edge73" class="edge">
<title>120&#45;&#45;378</title>
<path fill="none" stroke="transparent" d="M651.909,-2116.2288C880.1141,-2193.2962 2704.0987,-2809.2755 2932.9726,-2886.5687"/>
</g>
<!-- 120&#45;&#45;409 -->
<g id="edge74" class="edge">
<title>120&#45;&#45;409</title>
<path fill="none" stroke="transparent" d="M652.4097,-2114.9354C802.4116,-2156.4213 1611.913,-2380.3045 1762.3762,-2421.9179"/>
</g>
<!-- 120&#45;&#45;324 -->
<g id="edge75" class="edge">
<title>120&#45;&#45;324</title>
<path fill="none" stroke="transparent" d="M641.1691,-2087.0189C763.5594,-1881.4061 1733.3958,-252.1031 1856.0264,-46.0864"/>
</g>
<!-- 89&#45;&#45;113 -->
<g id="edge76" class="edge">
<title>89&#45;&#45;113</title>
<path fill="none" stroke="transparent" d="M1177.6483,-1064.1753C1329.7696,-1180.9325 2507.2862,-2084.7081 2674.4012,-2212.9733"/>
</g>
<!-- 89&#45;&#45;117 -->
<g id="edge77" class="edge">
<title>89&#45;&#45;117</title>
<path fill="none" stroke="transparent" d="M1180.4333,-1059.1406C1322.6467,-1114.4968 2221.0665,-1464.2039 2377.0281,-1524.9115"/>
</g>
<!-- 89&#45;&#45;435 -->
<g id="edge78" class="edge">
<title>89&#45;&#45;435</title>
<path fill="none" stroke="transparent" d="M1180.2174,-1043.469C1306.2357,-987.7251 2029.193,-667.9265 2167.8057,-606.6115"/>
</g>
<!-- 89&#45;&#45;323 -->
<g id="edge79" class="edge">
<title>89&#45;&#45;323</title>
<path fill="none" stroke="transparent" d="M1181.2799,-1055.6111C1380.5024,-1094.3417 3020.059,-1413.0863 3240.1103,-1455.8662"/>
</g>
<!-- 89&#45;&#45;340 -->
<g id="edge80" class="edge">
<title>89&#45;&#45;340</title>
<path fill="none" stroke="transparent" d="M1142.6907,-1059.6547C1008.4561,-1116.0735 195.8887,-1457.5951 47.8376,-1519.821"/>
</g>
<!-- 89&#45;&#45;374 -->
<g id="edge81" class="edge">
<title>89&#45;&#45;374</title>
<path fill="none" stroke="transparent" d="M1181.0833,-1046.4783C1362.0418,-997.7353 2738.8591,-626.8756 2938.2389,-573.1707"/>
</g>
<!-- 89&#45;&#45;378 -->
<g id="edge82" class="edge">
<title>89&#45;&#45;378</title>
<path fill="none" stroke="transparent" d="M1175.6609,-1066.3252C1333.8599,-1228.7283 2765.0893,-2697.9922 2939.2105,-2876.7407"/>
</g>
<!-- 89&#45;&#45;409 -->
<g id="edge83" class="edge">
<title>89&#45;&#45;409</title>
<path fill="none" stroke="transparent" d="M1169.8355,-1070.1824C1237.9517,-1220.2407 1701.1008,-2240.5467 1776.181,-2405.9465"/>
</g>
<!-- 89&#45;&#45;324 -->
<g id="edge84" class="edge">
<title>89&#45;&#45;324</title>
<path fill="none" stroke="transparent" d="M1173.1593,-1034.7908C1256.7679,-913.381 1763.3332,-177.7872 1854.6564,-45.1749"/>
</g>
<!-- 113&#45;&#45;117 -->
<g id="edge85" class="edge">
<title>113&#45;&#45;117</title>
<path fill="none" stroke="transparent" d="M2684.3213,-2204.9979C2639.5332,-2099.2465 2454.3138,-1661.9154 2409.7616,-1556.7209"/>
</g>
<!-- 113&#45;&#45;435 -->
<g id="edge86" class="edge">
<title>113&#45;&#45;435</title>
<path fill="none" stroke="transparent" d="M2686.7944,-2204.401C2629.6439,-2019.1323 2255.1541,-805.1245 2198.0731,-620.0812"/>
</g>
<!-- 113&#45;&#45;323 -->
<g id="edge87" class="edge">
<title>113&#45;&#45;323</title>
<path fill="none" stroke="transparent" d="M2709.067,-2207.9615C2789.4836,-2099.7579 3169.6654,-1588.2086 3249.6913,-1480.5306"/>
</g>
<!-- 113&#45;&#45;340 -->
<g id="edge88" class="edge">
<title>113&#45;&#45;340</title>
<path fill="none" stroke="transparent" d="M2669.7982,-2221.735C2418.5124,-2155.9768 298.3274,-1601.1519 48.6749,-1535.8211"/>
</g>
<!-- 113&#45;&#45;374 -->
<g id="edge89" class="edge">
<title>113&#45;&#45;374</title>
<path fill="none" stroke="transparent" d="M2698.0501,-2203.6456C2728.6444,-2014.1069 2927.5934,-781.5734 2958.3005,-591.3361"/>
</g>
<!-- 113&#45;&#45;378 -->
<g id="edge90" class="edge">
<title>113&#45;&#45;378</title>
<path fill="none" stroke="transparent" d="M2703.2898,-2251.4233C2743.8869,-2354.5174 2906.9771,-2768.6753 2947.4238,-2871.3876"/>
</g>
<!-- 113&#45;&#45;409 -->
<g id="edge91" class="edge">
<title>113&#45;&#45;409</title>
<path fill="none" stroke="transparent" d="M2669.8261,-2233.4578C2541.1307,-2261.8841 1939.6855,-2394.7312 1810.8063,-2423.1981"/>
</g>
<!-- 113&#45;&#45;324 -->
<g id="edge92" class="edge">
<title>113&#45;&#45;324</title>
<path fill="none" stroke="transparent" d="M2685.393,-2204.8411C2602.8703,-1984.533 1959.9971,-268.2761 1877.4695,-47.955"/>
</g>
<!-- 117&#45;&#45;435 -->
<g id="edge93" class="edge">
<title>117&#45;&#45;435</title>
<path fill="none" stroke="transparent" d="M2394.7074,-1509.7741C2365.4331,-1378.6618 2225.6536,-752.6251 2196.2276,-620.8334"/>
</g>
<!-- 117&#45;&#45;323 -->
<g id="edge94" class="edge">
<title>117&#45;&#45;323</title>
<path fill="none" stroke="transparent" d="M2425.0295,-1531.7748C2550.8412,-1521.1089 3114.7918,-1473.299 3239.8736,-1462.695"/>
</g>
<!-- 117&#45;&#45;340 -->
<g id="edge95" class="edge">
<title>117&#45;&#45;340</title>
<path fill="none" stroke="transparent" d="M2375.0222,-1533.8431C2137.393,-1533.4087 285.3579,-1530.0231 49.3999,-1529.5918"/>
</g>
<!-- 117&#45;&#45;374 -->
<g id="edge96" class="edge">
<title>117&#45;&#45;374</title>
<path fill="none" stroke="transparent" d="M2412.622,-1512.3317C2487.4712,-1383.56 2874.7841,-717.2211 2949.7173,-588.3048"/>
</g>
<!-- 117&#45;&#45;378 -->
<g id="edge97" class="edge">
<title>117&#45;&#45;378</title>
<path fill="none" stroke="transparent" d="M2409.5164,-1556.9344C2476.5321,-1720.8037 2880.1923,-2707.8488 2947.1332,-2871.5352"/>
</g>
<!-- 117&#45;&#45;409 -->
<g id="edge98" class="edge">
<title>117&#45;&#45;409</title>
<path fill="none" stroke="transparent" d="M2386.1221,-1554.2568C2303.8802,-1674.1659 1883.5849,-2286.9592 1800.6702,-2407.8494"/>
</g>
<!-- 117&#45;&#45;324 -->
<g id="edge99" class="edge">
<title>117&#45;&#45;324</title>
<path fill="none" stroke="transparent" d="M2391.8524,-1510.486C2329.9795,-1334.7433 1938.8614,-223.8186 1876.9953,-48.0953"/>
</g>
<!-- 435&#45;&#45;323 -->
<g id="edge100" class="edge">
<title>435&#45;&#45;323</title>
<path fill="none" stroke="transparent" d="M2210.3357,-612.1844C2343.2117,-719.1272 3112.3158,-1338.1263 3245.004,-1444.918"/>
</g>
<!-- 435&#45;&#45;340 -->
<g id="edge101" class="edge">
<title>435&#45;&#45;340</title>
<path fill="none" stroke="transparent" d="M2167.9222,-606.2954C1951.3449,-699.5919 264.1513,-1426.3956 47.5612,-1519.6976"/>
</g>
<!-- 435&#45;&#45;374 -->
<g id="edge102" class="edge">
<title>435&#45;&#45;374</title>
<path fill="none" stroke="transparent" d="M2215.578,-595.4914C2331.7692,-591.0106 2821.5815,-572.1214 2937.5748,-567.6482"/>
</g>
<!-- 435&#45;&#45;378 -->
<g id="edge103" class="edge">
<title>435&#45;&#45;378</title>
<path fill="none" stroke="transparent" d="M2198.6111,-619.9411C2274.176,-846.7165 2872.9617,-2643.7152 2948.675,-2870.9361"/>
</g>
<!-- 435&#45;&#45;409 -->
<g id="edge104" class="edge">
<title>435&#45;&#45;409</title>
<path fill="none" stroke="transparent" d="M2185.448,-620.621C2141.2302,-820.9842 1835.9646,-2204.2295 1791.7801,-2404.4419"/>
</g>
<!-- 435&#45;&#45;324 -->
<g id="edge105" class="edge">
<title>435&#45;&#45;324</title>
<path fill="none" stroke="transparent" d="M2178.5522,-574.7325C2127.5428,-484.1661 1932.0331,-137.0419 1881.0006,-46.4346"/>
</g>
<!-- 323&#45;&#45;340 -->
<g id="edge106" class="edge">
<title>323&#45;&#45;340</title>
<path fill="none" stroke="transparent" d="M3239.3595,-1461.1423C2954.1511,-1467.2113 332.8027,-1522.9905 49.4905,-1529.019"/>
</g>
<!-- 323&#45;&#45;374 -->
<g id="edge107" class="edge">
<title>323&#45;&#45;374</title>
<path fill="none" stroke="transparent" d="M3256.5698,-1437.1569C3214.0081,-1311.2674 3012.9646,-716.6175 2970.2627,-590.3134"/>
</g>
<!-- 323&#45;&#45;378 -->
<g id="edge108" class="edge">
<title>323&#45;&#45;378</title>
<path fill="none" stroke="transparent" d="M3259.2821,-1484.8941C3222.1924,-1657.5891 2998.7875,-2697.7947 2961.7392,-2870.2969"/>
</g>
<!-- 323&#45;&#45;409 -->
<g id="edge109" class="edge">
<title>323&#45;&#45;409</title>
<path fill="none" stroke="transparent" d="M3243.604,-1474.2909C3077.5518,-1583.0384 1973.5371,-2306.0564 1807.3766,-2414.8747"/>
</g>
<!-- 323&#45;&#45;324 -->
<g id="edge110" class="edge">
<title>323&#45;&#45;324</title>
<path fill="none" stroke="transparent" d="M3247.1035,-1442.7121C3097.8428,-1289.1557 2034.7836,-195.5018 1886.0288,-42.4658"/>
</g>
<!-- 340&#45;&#45;374 -->
<g id="edge111" class="edge">
<title>340&#45;&#45;374</title>
<path fill="none" stroke="transparent" d="M48.3437,-1521.7962C310.8765,-1435.7458 2676.1311,-660.4859 2938.637,-574.4443"/>
</g>
<!-- 340&#45;&#45;378 -->
<g id="edge112" class="edge">
<title>340&#45;&#45;378</title>
<path fill="none" stroke="transparent" d="M47.4468,-1540.1379C305.5445,-1660.3008 2677.7178,-2764.7166 2934.0995,-2884.0806"/>
</g>
<!-- 340&#45;&#45;409 -->
<g id="edge113" class="edge">
<title>340&#45;&#45;409</title>
<path fill="none" stroke="transparent" d="M46.9729,-1540.9137C236.473,-1637.6162 1575.6937,-2321.0254 1764.3795,-2417.3125"/>
</g>
<!-- 340&#45;&#45;324 -->
<g id="edge114" class="edge">
<title>340&#45;&#45;324</title>
<path fill="none" stroke="transparent" d="M43.8536,-1513.9145C227.0319,-1364.4315 1666.199,-189.9964 1849.5617,-40.3629"/>
</g>
<!-- 374&#45;&#45;378 -->
<g id="edge115" class="edge">
<title>374&#45;&#45;378</title>
<path fill="none" stroke="transparent" d="M2962.2163,-591.6525C2961.6384,-825.9129 2957.1743,-2635.5609 2956.5969,-2869.6151"/>
</g>
<!-- 374&#45;&#45;409 -->
<g id="edge116" class="edge">
<title>374&#45;&#45;409</title>
<path fill="none" stroke="transparent" d="M2949.0728,-587.6053C2828.5343,-778.4743 1920.6702,-2216.0495 1799.7473,-2407.5272"/>
</g>
<!-- 374&#45;&#45;324 -->
<g id="edge117" class="edge">
<title>374&#45;&#45;324</title>
<path fill="none" stroke="transparent" d="M2939.9388,-555.6233C2798.792,-485.6646 2032.1033,-105.6591 1891.0614,-35.7524"/>
</g>
<!-- 378&#45;&#45;409 -->
<g id="edge118" class="edge">
<title>378&#45;&#45;409</title>
<path fill="none" stroke="transparent" d="M2933.4257,-2885.3233C2784.2044,-2825.9006 1958.2252,-2496.9798 1809.4247,-2437.7245"/>
</g>
<!-- 378&#45;&#45;324 -->
<g id="edge119" class="edge">
<title>378&#45;&#45;324</title>
<path fill="none" stroke="transparent" d="M2947.7795,-2871.4256C2850.5643,-2614.9478 1974.7172,-304.2449 1877.512,-47.7934"/>
</g>
<!-- 409&#45;&#45;324 -->
<g id="edge120" class="edge">
<title>409&#45;&#45;324</title>
<path fill="none" stroke="transparent" d="M1787.3087,-2403.606C1795.4843,-2164.8185 1859.7173,-288.7495 1867.9011,-49.7215"/>
</g>
</g>
</svg>
