<?xml version="1.0" encoding="UTF-8" standalone="no"?>
<!DOCTYPE svg PUBLIC "-//W3C//DTD SVG 1.1//EN"
 "http://www.w3.org/Graphics/SVG/1.1/DTD/svg11.dtd">
<!-- Generated by graphviz version 2.40.1 (20161225.0304)
 -->
<!-- Pages: 1 -->
<svg width="601pt" height="720pt"
 viewBox="0.00 0.00 601.43 720.00" xmlns="http://www.w3.org/2000/svg" xmlns:xlink="http://www.w3.org/1999/xlink">
<g id="graph0" class="graph" transform="scale(.1494 .1494) rotate(0) translate(4 4813.9853)">
<polygon fill="#ffffff" stroke="transparent" points="-4,4 -4,-4813.9853 4020.5303,-4813.9853 4020.5303,4 -4,4"/>
<!-- 110 -->
<g id="node1" class="node">
<title>110</title>
<ellipse fill="#ffc125" stroke="#000000" cx="24.6978" cy="-1313.2049" rx="24.8972" ry="24.8972"/>
<text text-anchor="middle" x="24.6978" y="-1309.5049" font-family="Times,serif" font-size="14.00" fill="#000000">110</text>
</g>
<!-- 128 -->
<g id="node2" class="node">
<title>128</title>
<ellipse fill="#ffc125" stroke="#000000" cx="1394.1822" cy="-24.6978" rx="24.8972" ry="24.8972"/>
<text text-anchor="middle" x="1394.1822" y="-20.9978" font-family="Times,serif" font-size="14.00" fill="#000000">128</text>
</g>
<!-- 110&#45;&#45;128 -->
<g id="edge1" class="edge">
<title>110&#45;&#45;128</title>
<path fill="none" stroke="transparent" d="M42.767,-1296.2041C192.4561,-1155.3661 1225.3976,-183.5022 1375.9044,-41.8948"/>
</g>
<!-- 119 -->
<g id="node3" class="node">
<title>119</title>
<ellipse fill="#ffc125" stroke="#000000" cx="1542.1369" cy="-2464.1634" rx="24.8972" ry="24.8972"/>
<text text-anchor="middle" x="1542.1369" y="-2460.4634" font-family="Times,serif" font-size="14.00" fill="#000000">119</text>
</g>
<!-- 110&#45;&#45;119 -->
<g id="edge2" class="edge">
<title>110&#45;&#45;119</title>
<path fill="none" stroke="transparent" d="M44.4388,-1328.1782C209.4529,-1453.3392 1357.3439,-2324.0002 1522.3883,-2449.1842"/>
</g>
<!-- 85 -->
<g id="node4" class="node">
<title>85</title>
<ellipse fill="#ffc125" stroke="#000000" cx="423.5836" cy="-2229.2407" rx="20.2975" ry="20.2975"/>
<text text-anchor="middle" x="423.5836" y="-2225.5407" font-family="Times,serif" font-size="14.00" fill="#000000">85</text>
</g>
<!-- 110&#45;&#45;85 -->
<g id="edge3" class="edge">
<title>110&#45;&#45;85</title>
<path fill="none" stroke="transparent" d="M34.7575,-1336.3067C90.8827,-1465.1975 364.6196,-2093.8306 415.452,-2210.5665"/>
</g>
<!-- 441 -->
<g id="node5" class="node">
<title>441</title>
<ellipse fill="#ffc125" stroke="#000000" cx="3991.8325" cy="-2706.9485" rx="24.8972" ry="24.8972"/>
<text text-anchor="middle" x="3991.8325" y="-2703.2485" font-family="Times,serif" font-size="14.00" fill="#000000">441</text>
</g>
<!-- 110&#45;&#45;441 -->
<g id="edge4" class="edge">
<title>110&#45;&#45;441</title>
<path fill="none" stroke="transparent" d="M48.2453,-1321.4776C359.4898,-1430.8248 3656.5997,-2589.1737 3968.2254,-2698.6548"/>
</g>
<!-- 444 -->
<g id="node6" class="node">
<title>444</title>
<ellipse fill="#ffc125" stroke="#000000" cx="1939.9406" cy="-4785.2875" rx="24.8972" ry="24.8972"/>
<text text-anchor="middle" x="1939.9406" y="-4781.5875" font-family="Times,serif" font-size="14.00" fill="#000000">444</text>
</g>
<!-- 110&#45;&#45;444 -->
<g id="edge5" class="edge">
<title>110&#45;&#45;444</title>
<path fill="none" stroke="transparent" d="M36.6787,-1334.9247C190.3707,-1613.5479 1773.6219,-4483.7736 1927.8699,-4763.4048"/>
</g>
<!-- 440 -->
<g id="node7" class="node">
<title>440</title>
<ellipse fill="#ffc125" stroke="#000000" cx="1712.3321" cy="-1440.2742" rx="24.8972" ry="24.8972"/>
<text text-anchor="middle" x="1712.3321" y="-1436.5742" font-family="Times,serif" font-size="14.00" fill="#000000">440</text>
</g>
<!-- 110&#45;&#45;440 -->
<g id="edge6" class="edge">
<title>110&#45;&#45;440</title>
<path fill="none" stroke="transparent" d="M49.5337,-1315.0749C242.1672,-1329.5791 1495.3871,-1423.9395 1687.6084,-1438.4127"/>
</g>
<!-- 128&#45;&#45;119 -->
<g id="edge7" class="edge">
<title>128&#45;&#45;119</title>
<path fill="none" stroke="transparent" d="M1395.6947,-49.6367C1410.3026,-290.4898 1526.1099,-2199.9111 1540.6409,-2439.4979"/>
</g>
<!-- 128&#45;&#45;85 -->
<g id="edge8" class="edge">
<title>128&#45;&#45;85</title>
<path fill="none" stroke="transparent" d="M1384.0997,-47.5982C1287.0323,-268.0698 519.8939,-2010.4888 431.8155,-2210.5435"/>
</g>
<!-- 128&#45;&#45;441 -->
<g id="edge9" class="edge">
<title>128&#45;&#45;441</title>
<path fill="none" stroke="transparent" d="M1411.457,-42.5353C1625.5023,-263.5516 3760.3397,-2467.9164 3974.5329,-2689.0855"/>
</g>
<!-- 128&#45;&#45;444 -->
<g id="edge10" class="edge">
<title>128&#45;&#45;444</title>
<path fill="none" stroke="transparent" d="M1397.0207,-49.4578C1437.4518,-402.1341 1896.8251,-4409.1952 1937.1216,-4760.6972"/>
</g>
<!-- 128&#45;&#45;440 -->
<g id="edge11" class="edge">
<title>128&#45;&#45;440</title>
<path fill="none" stroke="transparent" d="M1399.6373,-48.97C1438.1351,-220.2621 1668.4812,-1245.1637 1706.9006,-1416.107"/>
</g>
<!-- 119&#45;&#45;85 -->
<g id="edge12" class="edge">
<title>119&#45;&#45;85</title>
<path fill="none" stroke="transparent" d="M1517.7341,-2459.0382C1368.374,-2427.669 579.5495,-2261.9972 443.5579,-2233.4357"/>
</g>
<!-- 119&#45;&#45;441 -->
<g id="edge13" class="edge">
<title>119&#45;&#45;441</title>
<path fill="none" stroke="transparent" d="M1566.7798,-2466.6057C1806.9097,-2490.4045 3726.2049,-2680.6226 3967.0383,-2704.4912"/>
</g>
<!-- 119&#45;&#45;444 -->
<g id="edge14" class="edge">
<title>119&#45;&#45;444</title>
<path fill="none" stroke="transparent" d="M1546.3353,-2488.6602C1586.1099,-2720.7392 1895.9648,-4528.695 1935.7418,-4760.7876"/>
</g>
<!-- 119&#45;&#45;440 -->
<g id="edge15" class="edge">
<title>119&#45;&#45;440</title>
<path fill="none" stroke="transparent" d="M1546.2178,-2439.6128C1569.4717,-2299.718 1685.0271,-1604.5406 1708.2594,-1464.7757"/>
</g>
<!-- 85&#45;&#45;441 -->
<g id="edge16" class="edge">
<title>85&#45;&#45;441</title>
<path fill="none" stroke="transparent" d="M443.6509,-2231.9272C715.6115,-2268.3366 3665.2185,-2663.2222 3966.9535,-2703.6177"/>
</g>
<!-- 85&#45;&#45;444 -->
<g id="edge17" class="edge">
<title>85&#45;&#45;444</title>
<path fill="none" stroke="transparent" d="M433.8711,-2246.5817C559.121,-2457.7092 1788.3514,-4529.7611 1927.1983,-4763.8084"/>
</g>
<!-- 85&#45;&#45;440 -->
<g id="edge18" class="edge">
<title>85&#45;&#45;440</title>
<path fill="none" stroke="transparent" d="M440.8273,-2218.6842C581.2123,-2132.741 1535.3139,-1548.6441 1690.9015,-1453.394"/>
</g>
<!-- 441&#45;&#45;444 -->
<g id="edge19" class="edge">
<title>441&#45;&#45;444</title>
<path fill="none" stroke="transparent" d="M3974.4032,-2724.6024C3786.902,-2914.5204 2146.0202,-4576.5517 1957.5567,-4767.4444"/>
</g>
<!-- 441&#45;&#45;440 -->
<g id="edge20" class="edge">
<title>441&#45;&#45;440</title>
<path fill="none" stroke="transparent" d="M3970.0024,-2694.8179C3750.9613,-2573.101 1952.7778,-1573.8852 1734.0889,-1452.3641"/>
</g>
<!-- 444&#45;&#45;440 -->
<g id="edge21" class="edge">
<title>444&#45;&#45;440</title>
<path fill="none" stroke="transparent" d="M1938.2394,-4760.2858C1918.5196,-4470.4769 1733.6399,-1753.4207 1714.0162,-1465.0237"/>
</g>
</g>
</svg>
